<svg width="110" height="19" viewBox="0 0 110 19" fill="none" xmlns="http://www.w3.org/2000/svg">
<g clip-path="url(#clip0_2_752)">
<path d="M43.1964 1.93453C43.1964 0.995149 43.9412 0.235352 44.858 0.235352C45.778 0.235352 46.5257 0.995149 46.5257 1.93453C46.5257 2.8727 45.778 3.6333 44.858 3.6333C43.9412 3.6333 43.1964 2.8727 43.1964 1.93453Z" fill="#273B7D"/>
<path d="M69.4636 13.2365C69.4636 12.2967 70.2079 11.5361 71.1248 11.5361C72.0444 11.5361 72.7919 12.2967 72.7919 13.2365C72.7919 14.1738 72.0444 14.9352 71.1248 14.9352C70.2079 14.9352 69.4636 14.1738 69.4636 13.2365Z" fill="#499FDD"/>
<path d="M15.8737 12.5024C14.4399 12.5024 13.4435 11.3432 13.4435 9.68665C13.4435 8.03056 14.4399 6.87213 15.8737 6.87213C17.3157 6.87213 18.323 8.03056 18.323 9.68665C18.323 11.3694 17.3367 12.5024 15.8737 12.5024ZM15.8737 4.39746C12.8403 4.39746 10.6389 6.62249 10.6389 9.68665C10.6389 12.7509 12.8403 14.9755 15.8737 14.9755C18.9184 14.9755 21.129 12.7509 21.129 9.68665C21.129 6.62249 18.9184 4.39746 15.8737 4.39746Z" fill="#273B7D"/>
<path d="M39.9721 9.95172C39.8541 9.72583 39.7189 9.53457 39.5749 9.38278L39.4832 9.28372L39.5797 9.1895C39.719 9.04012 39.8613 8.86295 39.9986 8.65761L42.6754 4.60656H39.4258L37.4146 7.7754C37.3007 7.94532 37.0709 8.03109 36.7268 8.03109H36.2684V2.04007C36.2684 0.841787 35.5351 0.678711 34.7429 0.678711H33.3867L33.3889 14.8201H36.2684V10.5782H36.5381C36.8663 10.5782 37.0899 10.6169 37.1924 10.7985L38.7808 13.8505C39.2245 14.6788 39.6667 14.8201 40.4985 14.8201H42.7052L41.0617 12.0527L39.9721 9.95172Z" fill="#273B7D"/>
<path d="M53.9506 4.375C52.486 4.375 51.5514 5.03735 51.0278 5.59744L50.8529 5.77743L50.7912 5.53262C50.6374 4.93266 50.1188 4.60249 49.3385 4.60249H48.048L48.056 14.8161H50.9159V10.1087C50.9159 9.64849 50.9747 9.24907 51.0942 8.88467C51.4126 7.78181 52.3005 7.0961 53.4104 7.0961C54.3031 7.0961 54.6519 7.57566 54.6519 8.81501V13.2635C54.6519 14.3213 55.1325 14.8161 56.1723 14.8161H57.5333L57.5287 8.32016C57.5287 5.73917 56.2914 4.375 53.9506 4.375Z" fill="#273B7D"/>
<path d="M44.896 4.60645H43.5405L43.5497 12.5036L43.5488 14.818H44.9957C45.0139 14.818 45.0285 14.82 45.0467 14.82L45.7206 14.818H46.3915V14.814H46.3961L46.4019 6.15706C46.4019 5.11259 45.9104 4.60645 44.896 4.60645Z" fill="#273B7D"/>
<path d="M27.1069 12.5024C25.6732 12.5024 24.6749 11.3432 24.6749 9.68665C24.6749 8.03056 25.6732 6.87213 27.1069 6.87213C28.5459 6.87213 29.556 8.03056 29.556 9.68665C29.556 11.3694 28.57 12.5024 27.1069 12.5024ZM27.1069 4.39746C24.0705 4.39746 21.8687 6.62249 21.8687 9.68665C21.8687 12.7509 24.0705 14.9755 27.1069 14.9755C30.1485 14.9755 32.3627 12.7509 32.3627 9.68665C32.3627 6.62249 30.1485 4.39746 27.1069 4.39746Z" fill="#273B7D"/>
<path d="M88.4077 12.5024C86.9746 12.5024 85.9755 11.3432 85.9755 9.68665C85.9755 8.03056 86.9746 6.87213 88.4077 6.87213C89.8469 6.87213 90.8575 8.03056 90.8575 9.68665C90.8575 11.3694 89.871 12.5024 88.4077 12.5024ZM88.4077 4.39746C85.372 4.39746 83.1701 6.62249 83.1701 9.68665C83.1701 12.7509 85.372 14.9755 88.4077 14.9755C91.4496 14.9755 93.6633 12.7509 93.6633 9.68665C93.6633 6.62249 91.4496 4.39746 88.4077 4.39746Z" fill="#499FDD"/>
<path d="M63.5588 12.0536C61.9953 12.0536 61.4387 10.6649 61.4387 9.36351C61.4387 8.79014 61.5812 6.92144 63.4085 6.92144C64.3167 6.92144 65.5269 7.18638 65.5269 9.45974C65.5269 11.6038 64.4559 12.0536 63.5588 12.0536ZM67.0117 4.58004C66.469 4.58004 66.0514 4.80028 65.8421 5.20254L65.7631 5.35875L65.6305 5.24159C65.1689 4.83491 64.3413 4.35254 62.9972 4.35254C60.323 4.35254 58.5226 6.3972 58.5226 9.44001C58.5226 12.4792 60.3855 14.6032 63.051 14.6032C63.9614 14.6032 64.681 14.3869 65.2513 13.9472L65.472 13.7785V14.0624C65.472 15.4266 64.6054 16.1791 63.0344 16.1791C62.271 16.1791 61.5761 15.9899 61.1114 15.8184C60.5046 15.6319 60.149 15.7861 59.903 16.4058L59.676 16.9776L59.3548 17.8127L59.5538 17.9206C60.5592 18.4638 61.868 18.7879 63.051 18.7879C65.4866 18.7879 68.3304 17.5188 68.3304 13.9472L68.3408 4.58004H67.0117Z" fill="#273B7D"/>
<path d="M5.22293 12.3854L2.89493 12.383V9.5496C2.89493 8.94401 3.12554 8.62913 3.63531 8.55666H5.22293C6.35609 8.55666 7.08825 9.28425 7.08906 10.4612C7.08825 11.6691 6.37429 12.3846 5.22293 12.3854ZM2.89493 4.7419V3.99619C2.89493 3.3435 3.16622 3.03306 3.76155 2.99319H4.95276C5.97439 2.99319 6.5863 3.61569 6.5863 4.65694C6.5863 5.45097 6.16743 6.37746 4.99033 6.37746H2.89493V4.7419ZM8.19613 7.5697L7.77524 7.32892L8.14264 7.00921C8.56986 6.63516 9.28615 5.79443 9.28615 4.34167C9.28615 2.11904 7.59257 0.684398 4.97137 0.684398H1.98005L1.63947 0.683594C0.862347 0.712593 0.240568 1.35602 0.231873 2.15206V14.7682H1.60465C1.60813 14.769 1.6093 14.7682 1.61046 14.769L5.03045 14.7682C7.94428 14.7682 9.825 13.1536 9.825 10.6528C9.825 9.30633 9.21776 8.15515 8.19613 7.5697Z" fill="#273B7D"/>
<path d="M106.438 4.4082C105.252 4.4082 104.105 4.97392 103.368 5.92256L103.161 6.18992L102.998 5.89075C102.469 4.90748 101.557 4.4082 100.29 4.4082C98.9602 4.4082 98.0686 5.16316 97.6545 5.61212L97.3835 5.91088L97.2792 5.5179C97.128 4.95218 96.6333 4.64052 95.8838 4.64052H94.6818L94.6702 14.8147H97.4013V10.3235C97.4013 9.93013 97.4492 9.54076 97.546 9.13368C97.8071 8.04855 98.5235 6.88127 99.7278 6.99803C100.471 7.07051 100.833 7.65476 100.833 8.78339V14.8147H103.584V10.3235C103.584 9.83188 103.629 9.46386 103.738 9.09463C103.959 8.05862 104.707 6.99643 105.869 6.99643C106.71 6.99643 107.021 7.48122 107.021 8.78339V13.3273C107.021 14.3552 107.471 14.8147 108.48 14.8147H109.766L109.768 8.31954C109.768 5.72486 108.646 4.4082 106.438 4.4082Z" fill="#499FDD"/>
<path d="M81.5888 11.2822C81.5807 11.2923 80.4054 12.5538 78.8581 12.5538C77.4484 12.5538 76.0242 11.6732 76.0242 9.70741C76.0242 8.01025 77.1284 6.82404 78.709 6.82404C79.2224 6.82404 79.8062 7.01127 79.8975 7.32614L79.911 7.3793C80.1214 8.09319 80.7587 8.13145 80.884 8.13145L82.3803 8.1331V6.80154C82.3803 5.04519 80.1858 4.4082 78.709 4.4082C75.5511 4.4082 73.2598 6.64652 73.2598 9.7288C73.2598 12.8099 75.5262 15.045 78.6513 15.045C81.3626 15.045 82.837 13.2307 82.8508 13.2126L82.9296 13.1143L81.7446 11.1132L81.5888 11.2822Z" fill="#499FDD"/>
</g>
<defs>
<clipPath id="clip0_2_752">
<rect width="110" height="19" fill="white"/>
</clipPath>
</defs>
</svg>
