<svg width="172" height="102" viewBox="0 0 172 102" fill="none" xmlns="http://www.w3.org/2000/svg">
<path fill-rule="evenodd" clip-rule="evenodd" d="M75.2292 44.249C75.2292 44.249 75.5811 45.662 77.3716 45.662C77.6867 45.6599 94.2713 45.662 94.2768 45.662C95.9031 45.662 96.316 44.249 96.316 44.249H75.2292Z" fill="black"/>
<mask id="mask0_2_580" style="mask-type:alpha" maskUnits="userSpaceOnUse" x="75" y="18" width="11" height="25">
<path fill-rule="evenodd" clip-rule="evenodd" d="M75.9769 18H85.1542V42.9894H75.9769V18Z" fill="white"/>
</mask>
<g mask="url(#mask0_2_580)">
<path fill-rule="evenodd" clip-rule="evenodd" d="M78.3354 25.9183C79.3665 25.9297 80.5854 26.8137 80.6052 28.6553L80.6019 42.9892H82.2485L82.2474 28.6078C82.2474 24.4413 79.081 24.5566 77.9659 24.8689C76.6251 25.2445 75.9767 26.3141 75.9767 26.9534C75.9767 26.9534 76.49 25.9183 78.3354 25.9183Z" fill="black"/>
<path fill-rule="evenodd" clip-rule="evenodd" d="M80.3192 21.5104C81.1406 21.5678 81.5216 22.4397 80.8534 22.865C80.4741 23.1069 79.684 23.0785 79.2678 22.39C78.8319 21.7441 78.9592 20.7231 79.5862 20.104C80.1875 19.4548 81.2081 19.3325 82.0734 19.7382C82.931 20.1274 83.5092 21.054 83.5092 21.98C83.5092 22.9065 83.5092 42.9897 83.5092 42.9897H85.1531C85.1531 42.9897 85.1541 24.4855 85.1541 21.98C85.1541 20.2831 84.1269 18.9121 82.7087 18.3251C81.3372 17.6918 79.5022 17.991 78.5425 19.1605C77.5498 20.2552 77.4307 21.9729 78.2855 23.0823C79.1124 24.2033 80.692 24.2284 81.3476 23.6649C82.6955 22.5036 81.5019 20.9754 80.3192 21.5104Z" fill="black"/>
</g>
<path fill-rule="evenodd" clip-rule="evenodd" d="M76.3745 28.7638C77.1163 28.605 77.7114 29.146 77.7114 30.3134C77.7114 30.7796 77.7098 42.9896 77.7098 42.9896H79.3542V30.41C79.3542 28.024 78.0431 27.3121 76.6359 27.7368C75.4071 28.1065 75.2292 29.4414 75.2292 29.4545C75.2292 29.4545 75.5471 28.9413 76.3745 28.7638Z" fill="black"/>
<mask id="mask1_2_580" style="mask-type:alpha" maskUnits="userSpaceOnUse" x="86" y="18" width="10" height="25">
<path fill-rule="evenodd" clip-rule="evenodd" d="M86.3916 18H95.569V42.9894H86.3916V18Z" fill="white"/>
</mask>
<g mask="url(#mask1_2_580)">
<path fill-rule="evenodd" clip-rule="evenodd" d="M93.2099 25.9183C92.1793 25.9297 90.9599 26.8137 90.9407 28.6553L90.9429 42.9892H89.2979V28.6078C89.2979 24.4413 92.4659 24.5566 93.5799 24.8689C94.9202 25.2445 95.5691 26.3141 95.5691 26.9534C95.5691 26.9534 95.0563 25.9183 93.2099 25.9183Z" fill="black"/>
<path fill-rule="evenodd" clip-rule="evenodd" d="M91.2271 21.5104C90.4057 21.5677 90.0247 22.4397 90.6929 22.865C91.0717 23.1069 91.8618 23.0785 92.278 22.39C92.7134 21.7441 92.5854 20.7231 91.9595 20.1039C91.3588 19.4547 90.3382 19.3324 89.4729 19.7381C88.6147 20.1274 88.0355 21.0539 88.0355 21.9799C88.0355 22.9065 88.0355 42.9896 88.0355 42.9896H86.3927C86.3927 42.9896 86.3916 24.4855 86.3916 21.9799C86.3916 20.283 87.4189 18.912 88.8365 18.3251C90.2091 17.6917 92.0441 17.9909 93.0038 19.1604C93.9959 20.2551 94.1151 21.9728 93.2602 23.0823C92.4333 24.2032 90.8537 24.2283 90.1976 23.6649C88.8497 22.5035 90.0444 20.9753 91.2271 21.5104Z" fill="black"/>
</g>
<path fill-rule="evenodd" clip-rule="evenodd" d="M95.171 28.7638C94.4292 28.605 93.834 29.146 93.834 30.3134C93.834 30.7796 93.8362 42.9896 93.8362 42.9896H92.1913V30.41C92.1913 28.024 93.5024 27.3121 94.9096 27.7368C96.1373 28.1065 96.3163 29.4414 96.3163 29.4545C96.3163 29.4545 95.9989 28.9413 95.171 28.7638Z" fill="black"/>
<mask id="mask2_2_580" style="mask-type:alpha" maskUnits="userSpaceOnUse" x="14" y="53" width="53" height="18">
<path fill-rule="evenodd" clip-rule="evenodd" d="M14 53.0566H66.0378V70.1892H14V53.0566Z" fill="white"/>
</mask>
<g mask="url(#mask2_2_580)">
<path fill-rule="evenodd" clip-rule="evenodd" d="M56.9513 61.3317C55.9965 61.3317 55.3684 61.1624 55.3695 61.1657L55.364 54.0995C55.8922 54.0995 56.3364 54.1066 56.8953 54.1066C60.1413 54.1066 60.7436 56.4511 60.7804 57.9662C60.8386 60.3795 59.0536 61.3317 56.9513 61.3317ZM66.0375 69.0516C65.405 69.0516 63.8336 68.9899 62.7267 67.3153C61.9948 66.2468 59.6131 61.8663 59.6131 61.8663C60.7803 61.4951 62.9282 60.5669 62.9282 57.5252C62.9282 56.4572 62.2403 53.5635 58.1092 53.5635H51.7551V53.8386C52.8296 53.8386 53.3111 54.2328 53.3111 55.742L53.3127 61.5398V67.1482C53.3127 68.6568 52.8471 69.0516 51.7732 69.0516V69.3246H56.909V69.0516C55.835 69.0516 55.3684 68.6568 55.3684 67.1482V62.1246C57.0786 62.1246 57.4657 62.3075 58.0027 63.1674L61.0258 68.0682C61.7005 69.1711 63.1319 69.4441 64.2926 69.4654C65.2584 69.4823 66.0375 69.3246 66.0375 69.3246V69.0516Z" fill="#302C2D"/>
<path fill-rule="evenodd" clip-rule="evenodd" d="M28.9187 54.5237C28.284 54.094 24.9622 53.0566 22.6518 53.0566C17.1191 53.0566 13.9664 57.7232 13.9664 62.2041C13.9664 66.8696 17.5616 70.1893 22.861 70.1893C26.4798 70.1893 28.4635 68.3094 29.2811 67.5423V65.7787H29.118C28.021 67.1481 26.3403 69.2136 22.6743 69.2136C20.2476 69.2136 16.301 67.3108 16.301 61.7848C16.301 58.3735 17.8197 54.0323 22.5579 54.0323C26.9701 54.0323 28.0902 56.3058 28.698 57.5135H28.9154L28.9187 54.5237Z" fill="#302C2D"/>
</g>
<path fill-rule="evenodd" clip-rule="evenodd" d="M46.9945 61.8782C46.9945 66.15 45.0097 69.3064 40.692 69.3064C36.6763 69.3064 34.2011 65.1743 34.2011 61.4141C34.2011 56.0279 37.283 54.0329 40.5509 54.0329C44.6364 54.0329 46.9945 58.1403 46.9945 61.8782ZM49.3277 61.6231C49.3277 56.7944 45.2659 53.0566 40.6209 53.0566C36.0226 53.0566 31.8674 56.6322 31.8674 61.8082C31.8674 66.4044 35.5082 70.1892 40.5506 70.1892C46.1542 70.1892 49.3277 65.7082 49.3277 61.6231Z" fill="#302C2D"/>
<path fill-rule="evenodd" clip-rule="evenodd" d="M113.349 53.5576V53.8377C114.42 53.8377 114.889 54.2319 114.889 55.7405V67.1462C114.889 68.6559 114.42 69.0496 113.349 69.0496V69.3225H118.187V69.0496C117.253 69.0496 116.857 68.7946 116.857 66.5888V61.332H126.499V66.7318C126.499 68.9376 126.102 69.0496 125.168 69.0496V69.3225H130.008V69.0496C128.933 69.0496 128.468 68.7989 128.468 67.2893V55.7405C128.468 54.2314 128.933 53.8377 130.008 53.8377V53.5576H125.168V53.8377C126.102 53.8377 126.499 54.0927 126.499 56.2969V60.6424H116.857V56.2969C116.857 54.0927 117.253 53.8377 118.187 53.8377V53.5576H113.349Z" fill="#302C2D"/>
<path fill-rule="evenodd" clip-rule="evenodd" d="M133.648 69.3236H138.784V69.0506C137.711 69.0506 137.244 68.657 137.244 67.1473V55.7405C137.244 54.2308 137.711 53.8372 138.784 53.8372V53.5576H133.648V53.8372C134.723 53.8372 135.188 54.2308 135.188 55.7405V67.1473C135.188 68.657 134.723 69.0506 133.648 69.0506V69.3236Z" fill="#302C2D"/>
<path fill-rule="evenodd" clip-rule="evenodd" d="M68.8119 69.3236H73.8604V69.0506C72.787 69.0506 72.3203 68.657 72.3203 67.1473V55.7405C72.3203 54.2314 72.787 53.8377 73.8604 53.8377V53.5576H68.8119V53.8377C69.8858 53.8377 70.3514 54.2314 70.3514 55.7405V67.1473C70.3514 68.657 69.8858 69.0506 68.8119 69.0506V69.3236Z" fill="#302C2D"/>
<path fill-rule="evenodd" clip-rule="evenodd" d="M107.593 54.0643C109.656 54.0643 110.221 55.0471 110.434 56.4088H110.747V53.5576H97.0316V56.417H97.3726C97.5862 55.0504 98.1478 54.0643 100.216 54.0643H102.877V66.8459C102.877 68.7487 102.645 69.0506 101.382 69.0506V69.3236H106.425V69.0506C105.164 69.0506 104.931 68.7487 104.931 66.8459V54.0643H107.593Z" fill="#302C2D"/>
<path fill-rule="evenodd" clip-rule="evenodd" d="M92.6125 56.9204C92.6125 54.5644 92.9107 53.8372 94.4304 53.8372V53.5576C94.4261 53.5576 90.1429 53.5576 90.1385 53.5576V53.8372C91.3997 53.8372 91.8757 54.3373 91.9229 57.0066V66.0209L81.0463 53.5576C80.6213 53.5576 77.8245 53.5576 77.8245 53.5576V53.8372C78.9934 53.8372 79.5051 54.1855 79.5051 55.8568C79.5051 58.5502 79.5133 63.3773 79.5133 66.6341C79.5133 68.8579 79.0044 69.0512 77.8486 69.0512V69.3225H81.838V69.0512C80.7399 69.0512 80.2035 68.9409 80.2035 66.6139L80.2051 55.8863L92.6147 69.9826L92.6125 56.9204Z" fill="#302C2D"/>
<path fill-rule="evenodd" clip-rule="evenodd" d="M151.016 62.2796H146.76L148.805 56.9289L151.016 62.2796ZM152.071 69.05V69.3241H157.412L157.394 69.05C156.32 69.05 155.597 68.1458 155.038 66.7999L149.461 53.5739L149.204 52.9629L148.968 53.6241L143.969 66.5444C143.246 68.4712 142.731 69.05 141.448 69.05V69.3241H145.842L145.837 69.05C145.114 69.05 144.648 68.748 144.6 68.4062C144.533 67.9465 144.684 67.7068 144.872 67.1625C145.446 65.6386 146.489 62.9682 146.489 62.9682H151.233L152.936 67.1483C153.029 67.3568 153.262 67.9836 153.262 68.308C153.262 68.7961 152.819 69.05 152.071 69.05Z" fill="#302C2D"/>
<path fill-rule="evenodd" clip-rule="evenodd" d="M156.948 53.7678H156.928L156.286 55.2786C156.272 55.3152 156.246 55.3408 156.215 55.3408C156.183 55.3408 156.162 55.3305 156.141 55.2988L155.531 53.7777H155.5V54.4154C155.5 54.4569 155.5 54.9193 155.511 55.0323C155.522 55.1765 155.584 55.2371 155.676 55.2371H155.734C155.754 55.2371 155.76 55.2529 155.76 55.2737V55.361C155.76 55.3818 155.754 55.3916 155.734 55.3916C155.702 55.3916 155.517 55.3867 155.408 55.3867C155.294 55.3867 155.113 55.3916 155.071 55.3916C155.051 55.3916 155.036 55.3818 155.036 55.361V55.2688C155.036 55.248 155.046 55.2371 155.062 55.2371H155.119C155.211 55.2371 155.284 55.1557 155.294 55.0624C155.315 54.8675 155.326 54.3024 155.326 54.2297V53.8192C155.326 53.7165 155.274 53.675 155.181 53.675H155.119C155.097 53.675 155.087 53.6652 155.087 53.6494V53.562C155.087 53.5418 155.097 53.5314 155.119 53.5314C155.139 53.5314 155.315 53.5418 155.428 53.5418C155.594 53.5418 155.738 53.5314 155.812 53.5314C155.872 53.5314 155.888 53.5418 155.905 53.5827L156.348 54.7135L156.814 53.5827C156.834 53.5522 156.855 53.5418 156.896 53.5418H157.501C157.527 53.5418 157.538 53.5522 157.538 53.562V53.6439C157.538 53.6652 157.527 53.675 157.507 53.675H157.465C157.372 53.675 157.362 53.7263 157.362 53.788C157.362 53.829 157.351 54.4154 157.351 54.4662C157.351 54.5186 157.362 55.0422 157.362 55.094C157.362 55.1765 157.393 55.2371 157.455 55.2371H157.553C157.569 55.2371 157.578 55.248 157.578 55.2688V55.361C157.578 55.3818 157.573 55.3916 157.553 55.3916C157.516 55.3916 157.3 55.3818 157.144 55.3818C157.01 55.3818 156.772 55.3916 156.742 55.3916C156.721 55.3916 156.71 55.3867 156.71 55.361V55.2688C156.71 55.248 156.715 55.2371 156.736 55.2371H156.834C156.906 55.2371 156.938 55.1967 156.948 55.1448V53.7678ZM154.261 54.374C154.261 54.6618 154.25 55.0942 154.261 55.1352C154.27 55.1968 154.29 55.2373 154.352 55.2373H154.467C154.488 55.2373 154.497 55.2482 154.497 55.2689V55.3612C154.497 55.3869 154.483 55.3918 154.461 55.3918C154.431 55.3918 154.198 55.3819 154.043 55.3819C153.909 55.3819 153.65 55.3918 153.619 55.3918C153.594 55.3918 153.588 55.3869 153.588 55.3716V55.2689C153.588 55.2482 153.594 55.2373 153.614 55.2373H153.744C153.795 55.2373 153.836 55.1968 153.836 55.0838V53.6954C153.764 53.6954 153.608 53.6954 153.515 53.7265C153.401 53.7625 153.33 53.8908 153.268 54.0148C153.258 54.0295 153.247 54.0503 153.227 54.0454L153.154 54.0246C153.139 54.0197 153.134 54.0039 153.139 53.9831C153.163 53.8608 153.231 53.5365 153.236 53.5005C153.242 53.4699 153.258 53.459 153.273 53.459C153.293 53.459 153.304 53.4699 153.314 53.4797C153.335 53.5005 153.387 53.542 153.506 53.542C153.65 53.542 153.826 53.5523 154.043 53.5523C154.239 53.5523 154.477 53.542 154.632 53.542C154.772 53.542 154.803 53.4955 154.818 53.4797C154.829 53.4699 154.844 53.459 154.86 53.459C154.875 53.459 154.891 53.4699 154.891 53.5005C154.897 53.5316 154.933 53.8499 154.952 53.9886C154.952 54.0088 154.948 54.0197 154.933 54.0246L154.871 54.0454C154.849 54.0503 154.844 54.0454 154.829 54.0148C154.798 53.9531 154.704 53.7882 154.611 53.7369C154.519 53.6954 154.338 53.6954 154.261 53.6954V54.374Z" fill="#302C2D"/>
<mask id="mask3_2_580" style="mask-type:alpha" maskUnits="userSpaceOnUse" x="66" y="77" width="15" height="8">
<path fill-rule="evenodd" clip-rule="evenodd" d="M66.2286 77.0918H80.6373V84.0106H66.2286V77.0918Z" fill="white"/>
</mask>
<g mask="url(#mask3_2_580)">
<path fill-rule="evenodd" clip-rule="evenodd" d="M70.72 83.9174V80.992H67.2511V83.9174H66.2288V77.2285H67.2511V80.1217H70.72V77.2285H71.7429V83.9174H70.72Z" fill="#302C2D"/>
<path fill-rule="evenodd" clip-rule="evenodd" d="M77.0735 77.9718C75.8293 77.9718 74.5429 78.9049 74.5429 80.5614C74.5429 82.2179 75.8293 83.1619 77.0735 83.1619C78.2968 83.1619 79.6041 82.2179 79.6041 80.5614C79.6041 78.9049 78.2968 77.9718 77.0735 77.9718ZM77.0736 84.0434C75.281 84.0434 73.5098 82.7325 73.5098 80.5621C73.5098 78.4126 75.281 77.0918 77.0736 77.0918C78.8657 77.0918 80.6375 78.4126 80.6375 80.5621C80.6375 82.7325 78.8657 84.0434 77.0736 84.0434Z" fill="#302C2D"/>
</g>
<path fill-rule="evenodd" clip-rule="evenodd" d="M84.9018 78.0982V83.9174H83.8789V78.0982H81.7173V77.2285H87.0628V78.0982H84.9018Z" fill="#302C2D"/>
<path fill-rule="evenodd" clip-rule="evenodd" d="M89.121 83.9174V77.2285H92.7475V78.0982H90.1428V80.1217H92.3264V80.992H90.1428V83.0471H93.1165V83.9174H89.121Z" fill="#302C2D"/>
<mask id="mask4_2_580" style="mask-type:alpha" maskUnits="userSpaceOnUse" x="95" y="77" width="11" height="8">
<path fill-rule="evenodd" clip-rule="evenodd" d="M95.3417 77.0918H105.317V84.0106H95.3417V77.0918Z" fill="white"/>
</mask>
<g mask="url(#mask4_2_580)">
<path fill-rule="evenodd" clip-rule="evenodd" d="M95.3416 83.9174V77.2285H96.3644V83.0471H99.3276V83.9174H95.3416Z" fill="#302C2D"/>
<path fill-rule="evenodd" clip-rule="evenodd" d="M102.997 84.0434C102.27 84.0434 101.606 83.8228 101.257 83.5924L101.026 82.4813C101.668 82.9317 102.323 83.1627 103.051 83.1627C103.799 83.1627 104.295 82.7428 104.295 82.1242C104.295 81.5482 103.935 81.16 103.124 80.8974C101.921 80.5092 101.29 79.8387 101.29 78.9154C101.29 77.9829 101.985 77.0918 103.42 77.0918C104.083 77.0918 104.642 77.3015 104.884 77.4795L104.684 78.3187C104.452 78.1505 103.926 77.931 103.377 77.931C102.692 77.931 102.27 78.3498 102.27 78.8428C102.27 79.2829 102.65 79.6394 103.356 79.8807C104.526 80.2788 105.317 80.8974 105.317 82.0298C105.317 83.2255 104.516 84.0434 102.997 84.0434Z" fill="#302C2D"/>
</g>
</svg>
