<svg width="172" height="102" viewBox="0 0 172 102" fill="none" xmlns="http://www.w3.org/2000/svg">
<path fill-rule="evenodd" clip-rule="evenodd" d="M105.013 71.3777H108.402V73.676H102.668V63.2646H105.013V71.3777Z" fill="black"/>
<path fill-rule="evenodd" clip-rule="evenodd" d="M98.7902 65.5629V67.3035H101.445V69.5858H98.7902V71.3777H101.593V73.676H96.461V63.2646H101.593V65.5629H98.7902Z" fill="black"/>
<path fill-rule="evenodd" clip-rule="evenodd" d="M93.544 73.676H91.1993V65.5629H89.2606V63.2646H95.4834V65.5629H93.544V73.676Z" fill="black"/>
<path fill-rule="evenodd" clip-rule="evenodd" d="M81.2772 68.2818C81.2772 69.1943 81.5546 69.9606 82.0266 70.5134C82.4818 71.0676 83.1189 71.3942 83.8192 71.3942C84.5188 71.3942 85.1559 71.0676 85.6111 70.5134C86.0831 69.9606 86.3606 69.1943 86.3606 68.2818C86.3606 67.5661 86.0831 66.8812 85.6111 66.3762C85.1559 65.8725 84.5188 65.5452 83.8192 65.5452C83.1189 65.5452 82.4818 65.8725 82.0266 66.3762C81.5546 66.8812 81.2772 67.5661 81.2772 68.2818ZM88.7871 68.2823C88.7871 69.9611 88.2666 71.3947 87.402 72.4055C86.5064 73.4142 85.2687 74.0177 83.8189 74.0177C82.3684 74.0177 81.1314 73.4142 80.2351 72.4055C79.3543 71.3947 78.8338 69.9611 78.8338 68.2823C78.8338 66.7018 79.4196 65.3666 80.3496 64.4212C81.2768 63.4764 82.5159 62.9229 83.8189 62.9229C85.1219 62.9229 86.3603 63.4764 87.2896 64.4212C88.2013 65.3666 88.7871 66.7018 88.7871 68.2823Z" fill="black"/>
<path fill-rule="evenodd" clip-rule="evenodd" d="M75.4783 67.2895V63.2646H77.8237V73.676H75.4783V69.4074H72.3813V73.676H70.0359V63.2646H72.3813V67.2895H75.4783Z" fill="black"/>
<path fill-rule="evenodd" clip-rule="evenodd" d="M123.754 55.6772C123.946 55.7412 124.057 55.7679 124.251 55.8002L124.212 56.0565C123.07 64.1752 119.276 71.4698 113.731 77.0133C107.035 83.6948 97.8132 87.8482 87.6309 87.8482C77.4816 87.8482 68.2447 83.6948 61.5647 77.0133C56.0106 71.4593 52.2126 64.1702 51.074 56.0488C51.0522 55.8774 51.0108 55.7074 50.9806 55.2656C51.14 55.4138 51.3227 55.4995 51.532 55.5684C51.5418 55.6449 51.5657 55.9807 51.5812 56.0509C52.7121 64.034 56.456 71.2043 61.9068 76.6551C68.5046 83.2712 77.6115 87.3593 87.6309 87.3593C97.6664 87.3593 106.773 83.2712 113.387 76.6551C118.831 71.2106 122.574 64.0382 123.705 56.0558C123.709 56.0214 123.743 55.7903 123.754 55.6772Z" fill="black"/>
<path fill-rule="evenodd" clip-rule="evenodd" d="M87.6309 14.4882C77.6115 14.4882 68.5046 18.577 61.9067 25.1762C58.802 28.281 56.2501 31.9511 54.4238 35.9992H53.8893C55.7458 31.805 58.3567 28.0274 61.5647 24.8335C68.2447 18.1373 77.4815 14 87.6309 14C97.8132 14 107.035 18.1373 113.731 24.8335C117.369 28.4727 120.258 32.8622 122.132 37.7412C121.988 37.8437 121.88 37.9463 121.738 38.0938C119.89 33.2309 116.998 28.7881 113.387 25.1762C106.773 18.577 97.6664 14.4882 87.6309 14.4882Z" fill="black"/>
<path fill-rule="evenodd" clip-rule="evenodd" d="M121.821 56.0534C120.699 63.5251 117.171 70.2325 112.053 75.3363C105.795 81.6097 97.1613 85.487 87.6308 85.487C78.1334 85.487 69.4999 81.6097 63.2259 75.3363C58.1165 70.2269 54.5847 63.5258 53.4734 56.0534C53.4538 55.9389 53.4517 55.9108 53.4355 55.7872C53.2768 55.7703 53.0752 55.7345 52.9129 55.7015L52.9698 56.0464C54.0888 63.6628 57.6817 70.4924 62.8852 75.6946C69.2379 82.0487 78.0027 85.9745 87.6308 85.9745C97.292 85.9745 106.056 82.0487 112.41 75.6946C117.61 70.4945 121.199 63.6592 122.325 56.052C122.363 55.797 122.399 55.5933 122.443 55.3173C122.279 55.2576 122.131 55.2014 121.979 55.1367L121.821 56.0534Z" fill="black"/>
<path fill-rule="evenodd" clip-rule="evenodd" d="M87.6309 16.3612C97.1613 16.3612 105.796 20.2393 112.053 26.4951C115.73 30.1561 118.578 34.6382 120.31 39.6388C120.441 39.4555 120.53 39.3494 120.664 39.185C118.899 34.2379 116.047 29.7901 112.41 26.1516C106.056 19.7996 97.292 15.8555 87.6309 15.8555C78.0028 15.8555 69.2379 19.7996 62.8852 26.1516C60.0362 28.9999 57.6754 32.3266 55.9319 36.0002H56.4721C58.1776 32.4593 60.478 29.2422 63.2259 26.4951C69.4999 20.2393 78.1334 16.3612 87.6309 16.3612Z" fill="black"/>
<path fill-rule="evenodd" clip-rule="evenodd" d="M129.615 60.4781C130.645 60.4781 131.473 59.6443 131.473 58.6103C131.473 57.5862 130.645 56.751 129.615 56.751C128.582 56.751 127.747 57.5862 127.747 58.6103C127.747 59.6443 128.582 60.4781 129.615 60.4781ZM129.614 60.253C128.708 60.253 127.976 59.5218 127.976 58.6108C127.976 57.7074 128.708 56.9762 129.614 56.9762C130.518 56.9762 131.248 57.7074 131.248 58.6108C131.248 59.5218 130.518 60.253 129.614 60.253Z" fill="black"/>
<path fill-rule="evenodd" clip-rule="evenodd" d="M129.178 58.4914V57.7552H129.772C130.03 57.7552 130.313 57.7945 130.313 58.1163C130.313 58.5405 129.86 58.4914 129.567 58.4914H129.178ZM129.914 58.6921C130.284 58.6829 130.572 58.5312 130.572 58.1224C130.572 57.9461 130.494 57.7607 130.338 57.6729C130.182 57.5801 130.005 57.5703 129.83 57.5703H128.924V59.653H129.177V58.6921H129.645L130.24 59.653H130.543L129.914 58.6921Z" fill="black"/>
<path fill-rule="evenodd" clip-rule="evenodd" d="M105.863 53.6369L106.84 57.2368C106.84 57.2368 105.212 59.1594 101.856 59.1594C98.4847 59.1594 96.9352 56.8456 97.0658 54.0282C97.1958 51.4692 98.4503 49.6781 98.5486 45.3441C98.5816 44.0903 98.1574 42.6384 97.3763 41.9879L98.2712 38.5341C100.471 38.7139 103.289 36.0911 103.761 33.8419C104.234 31.675 103.029 30.339 100.813 30.2582H99.6409L93.5965 52.8375H87.9097L93.482 32.0831C93.482 32.0831 92.1784 32.5059 91.4942 32.5059C90.7946 32.5059 90.0451 32.2306 90.0451 32.2306L90.8761 29.1174C90.8761 29.1174 92.4228 29.2811 93.6605 28.5801C94.9318 27.8636 96.0887 26.9196 96.0887 26.9196L101.481 26.8858C105.212 26.8704 108.763 30.1605 108.437 34.0379C108.128 37.5725 105.064 41.1078 101.497 41.4344C102.915 42.4768 103.241 45.4094 103.192 46.8592C103.093 49.5629 102.882 50.7844 102.719 52.1541C102.571 53.3103 103.077 54.2881 104.234 54.2881C105.032 54.2881 105.863 53.6369 105.863 53.6369Z" fill="black"/>
<path fill-rule="evenodd" clip-rule="evenodd" d="M113.031 36.8066C108.862 36.8066 105.914 40.9614 105.001 44.626C104.072 48.2603 105.392 52.9848 110.018 52.9848C114.612 52.9848 117.773 48.7984 118.327 44.626C118.814 40.9952 117.414 36.8066 113.031 36.8066ZM114.042 44.6926C113.552 46.3707 112.054 49.4157 110.002 49.4157C107.787 49.4157 108.958 45.4091 109.22 44.6751C110.065 42.3781 111.55 40.1957 112.967 40.1957C114.71 40.1957 114.693 42.4111 114.042 44.6926Z" fill="black"/>
<path fill-rule="evenodd" clip-rule="evenodd" d="M78.7393 37.8669C78.7393 37.8669 77.6147 36.8238 75.9521 36.8238C72.8088 36.8238 69.7125 40.6036 68.5401 44.5786C67.6769 47.4789 67.5139 52.9522 71.8478 52.9522C73.5105 52.9522 75.0073 51.8943 75.0073 51.8943L74.8128 52.8707H79.8793L86.2981 28.7109H81.15L78.7393 37.8669ZM77.013 44.7077C76.5571 46.338 75.5779 49.3851 73.4608 49.3851C71.5544 49.3851 72.3201 45.6054 72.6292 44.6115C73.3793 42.2499 74.9436 40.2122 76.3281 40.2122C78.2015 40.2122 77.4021 43.3071 77.013 44.7077Z" fill="black"/>
<path fill-rule="evenodd" clip-rule="evenodd" d="M145.354 57.5138C145.354 57.5138 143.399 59.2242 141.086 59.2242C138.772 59.2242 136.835 57.4316 137.11 54.7926C137.24 53.5549 137.354 53.2128 137.388 51.5024C137.42 50.3455 137.24 48.2277 135.954 47.6728L136.688 44.8385C137.567 44.8708 138.772 44.4796 139.767 43.8285C140.484 43.3712 141.086 42.7699 141.379 42.0857C141.819 41.0426 141.346 40.0979 140.092 40.3093C139.717 40.3571 139.049 40.5706 138.348 40.9949C137.486 41.5308 136.475 42.5255 136.084 43.9753L133.787 52.87H129.519L135.858 28.791H140.125L137.567 38.3713C138.039 38.0124 139.733 36.8878 141.476 36.8878C143.546 36.8878 145.207 37.8501 145.207 40.1955C145.207 43.5524 142.406 46.1738 139.571 47.0701C140.94 48.0964 141.298 51.3886 141.298 52.7085C141.313 54.3704 141.982 55.0848 142.698 55.0848C143.708 55.0848 144.36 54.2875 144.36 54.2875L145.354 57.5138Z" fill="black"/>
<path fill-rule="evenodd" clip-rule="evenodd" d="M125.136 49.5138C126.799 49.5138 128.948 47.7219 128.948 47.7219L128.003 51.6983C128.003 51.6983 126.44 52.969 124.192 52.969C119.582 52.969 118.472 48.2284 119.238 44.5947C120.2 40.18 123.8 36.9053 127.254 36.9053C130.056 36.9053 131.311 38.681 131.311 38.681L130.415 42.1679C130.415 42.1679 129.503 40.1639 127.709 40.1639C126.066 40.1639 124.453 42.3624 123.769 44.7247C123.328 46.1913 122.79 49.5138 125.136 49.5138Z" fill="black"/>
<path fill-rule="evenodd" clip-rule="evenodd" d="M46.0097 27.0322L39.0852 52.8048H33.4167L36.6738 40.6192H32.8786L29.6201 52.8048H24L29.5063 32.0166C29.5063 32.0166 29.0673 32.5554 27.2916 32.5554C26.8673 32.5554 26.3946 32.4079 26.3946 32.4079L27.1932 29.5897C27.1932 29.5897 28.8875 29.6052 29.9467 28.8079C31.1682 27.8632 31.7547 27.0322 31.7547 27.0322H36.5284L33.9372 36.661H37.7499L40.3236 27.0322H46.0097Z" fill="black"/>
<path fill-rule="evenodd" clip-rule="evenodd" d="M68.9798 41.4015C68.9798 41.4015 68.1819 41.0271 67.5307 40.9955C67.0742 40.9779 65.087 41.3039 64.3705 43.8122L61.9584 52.8538H57.2178L61.4049 36.9531H66.1786L65.7873 38.3059C65.7873 38.3059 67.5307 36.9854 69.2088 36.9854C69.7616 36.9854 70.0391 37.1996 70.0391 37.1996L68.9798 41.4015Z" fill="black"/>
<path fill-rule="evenodd" clip-rule="evenodd" d="M55.5879 49.3036L58.7987 36.9698H53.8775L53.454 38.3065C53.3079 37.9328 52.054 36.8574 50.5712 36.8574C47.1652 36.8574 44.1349 40.5395 43.0441 44.5952C42.7673 45.639 42.6212 46.6962 42.6212 47.7224C42.6212 50.7049 44.1848 53.2456 46.7915 53.2456C48.8103 53.2456 50.3753 51.8611 50.3753 51.8611C50.3753 51.8611 51.2547 53.2948 53.2749 53.2948C55.3112 53.2948 56.7778 52.0402 56.7778 52.0402L57.625 48.5878C57.1199 48.977 56.2735 49.3682 55.5879 49.3036ZM52.0693 44.6607C51.8417 45.8815 50.538 49.3852 48.7461 49.3852C46.7267 49.3852 46.9381 46.0451 47.2963 44.5785C47.6707 43.0634 48.9751 40.2122 50.9454 40.2122C52.672 40.2122 52.313 43.4539 52.0693 44.6607Z" fill="black"/>
<path fill-rule="evenodd" clip-rule="evenodd" d="M129.665 48.2161L128.735 52.1715C127.434 53.1808 125.886 53.8334 124.191 53.8011C122.796 53.7674 121.626 53.3958 120.696 52.7067C121.722 54.16 123.29 54.9397 125.341 54.9903C127.037 55.0219 128.584 54.3714 129.889 53.3592L131.468 46.7129C130.985 47.114 130.354 47.6766 129.665 48.2161Z" fill="black"/>
<path fill-rule="evenodd" clip-rule="evenodd" d="M80.5151 53.6843H73.8027L73.8673 53.3907C73.1993 53.6035 72.5974 53.8002 71.8324 53.7841C70.7914 53.7567 69.9647 53.4968 69.3177 53.0704C70.0209 54.1732 71.1834 54.9248 72.9991 54.9726C73.7648 54.9894 74.3675 54.7928 75.0193 54.582L74.9701 54.8742H81.6649L88.3625 29.6221H86.9099L80.5151 53.6843Z" fill="black"/>
<path fill-rule="evenodd" clip-rule="evenodd" d="M35.6153 41.4512H33.5144L30.2397 53.6375H24.7601L24.4545 54.7895L31.4071 54.8267L34.6649 42.639H35.2971L35.6153 41.4512Z" fill="black"/>
<path fill-rule="evenodd" clip-rule="evenodd" d="M28.0178 34.4352L28.317 33.3057C27.9201 33.3689 27.4924 33.3858 27.1088 33.3717L26.8988 34.1156C27.2908 34.235 27.6462 34.3544 28.0178 34.4352Z" fill="black"/>
<path fill-rule="evenodd" clip-rule="evenodd" d="M68.6052 42.1339C68.3123 41.9555 67.7743 41.8262 67.5474 41.8262C66.2598 41.8262 65.4942 42.9494 65.1507 44.041L62.5777 53.6698H56.1583L56.2405 53.3593C55.3112 53.8334 54.318 54.0933 53.2749 54.1249C52.1187 54.0933 51.1578 53.7681 50.2608 52.9694C49.153 53.6852 47.8339 54.1095 46.4972 54.061C45.584 53.9746 44.8177 53.6761 44.1862 53.2251C44.9434 54.3223 46.0736 55.1013 47.6492 55.2495C48.9845 55.298 50.305 54.8751 51.412 54.1587C52.3083 54.9566 53.2699 55.2825 54.4261 55.3148C55.4685 55.2825 56.4793 55.0219 57.3918 54.5499L57.3103 54.859H63.7445L66.3189 45.2316C66.6005 44.303 67.2208 43.3392 68.202 43.0807C68.3271 42.7632 68.4612 42.4479 68.6052 42.1339Z" fill="black"/>
<path fill-rule="evenodd" clip-rule="evenodd" d="M56.7131 48.2109C57.1036 47.9833 57.4949 47.755 57.8039 47.4621L60.3636 37.6865H59.4715L56.7131 48.2109Z" fill="black"/>
<path fill-rule="evenodd" clip-rule="evenodd" d="M118.262 47.8867C116.812 51.2105 113.815 53.702 110.018 53.8011C108.683 53.8488 107.574 53.4906 106.466 52.7095L107.753 57.4495C106.189 59.209 104.202 59.9915 101.856 59.9754C100.436 59.9684 99.2477 59.6045 98.336 58.9512C99.2772 60.3399 100.886 61.1547 103.007 61.1639C105.353 61.1807 107.341 60.3968 108.905 58.6562L107.617 53.898C108.724 54.6791 109.833 55.0388 111.17 54.9903C114.532 54.9039 117.262 52.9526 118.843 50.211C118.568 49.5296 118.373 48.7535 118.262 47.8867Z" fill="black"/>
<path fill-rule="evenodd" clip-rule="evenodd" d="M97.718 45.7678C97.718 44.8392 97.6197 43.3718 97.0985 43.0635L94.2326 53.6693H88.7291L88.4095 54.8585H95.3831L97.7039 46.2728L97.718 45.7678Z" fill="black"/>
<path fill-rule="evenodd" clip-rule="evenodd" d="M92.3092 33.2393C91.9187 33.3208 91.5605 33.3531 91.1523 33.3208L90.7843 33.2681L90.6094 33.9235C91.1025 34.1096 91.538 34.2747 92.003 34.3864L92.3092 33.2393Z" fill="black"/>
<path fill-rule="evenodd" clip-rule="evenodd" d="M108.437 30.2582C109.84 32.881 109.449 35.6022 107.818 38.1597C108.563 37.496 109.356 36.953 110.212 36.5772C110.652 34.8745 110.499 33.1452 109.605 31.4636C109.105 30.5265 108.456 29.7342 107.691 29.1006C107.968 29.4574 108.218 29.8438 108.437 30.2582Z" fill="black"/>
<path fill-rule="evenodd" clip-rule="evenodd" d="M119.189 42.1333C119.367 41.7126 119.554 41.3206 119.756 40.9498C119.322 39.8491 118.678 38.9457 117.813 38.2988C118.541 39.3152 118.994 40.6238 119.189 42.1333Z" fill="black"/>
<path fill-rule="evenodd" clip-rule="evenodd" d="M130.876 43.6617C131.313 44.3964 131.611 45.2351 131.809 45.7514L133.358 39.6909C133.003 39.2189 132.627 38.8333 132.206 38.501L130.876 43.6617Z" fill="black"/>
<path fill-rule="evenodd" clip-rule="evenodd" d="M127.629 40.9953C126.049 41.1245 124.973 43.6652 124.615 44.7413C124.256 45.7999 123.639 48.6678 125.136 48.684L125.354 48.6742C125.28 47.7568 125.568 46.5479 125.766 45.9467C126.126 44.8551 127.201 42.3137 128.78 42.1838C129.1 42.1592 129.391 42.2301 129.657 42.3685C129.161 41.572 128.498 40.9264 127.629 40.9953Z" fill="black"/>
<path fill-rule="evenodd" clip-rule="evenodd" d="M71.5338 38.0175C71.3006 37.8784 71.0716 37.7899 70.7464 37.7422L70.3481 39.3008C70.7268 38.8443 71.1187 38.4109 71.5338 38.0175Z" fill="black"/>
<path fill-rule="evenodd" clip-rule="evenodd" d="M35.0132 35.8463H36.4827L38.5766 28.041H37.0994L35.0132 35.8463Z" fill="black"/>
<path fill-rule="evenodd" clip-rule="evenodd" d="M39.7209 53.6366H34.131L33.8542 54.7885L40.8722 54.8258L48.0579 28.041H46.5793L39.7209 53.6366Z" fill="black"/>
<path fill-rule="evenodd" clip-rule="evenodd" d="M135.758 48.5039L134.423 53.6843H129.925L129.612 54.8742H135.574L136.57 51.0558C136.543 50.1314 136.37 48.7547 135.758 48.5039Z" fill="black"/>
<path fill-rule="evenodd" clip-rule="evenodd" d="M138.871 36.6768C139.405 36.4394 139.933 36.2617 140.485 36.1584L142.154 30.0059H140.64L138.871 36.6768Z" fill="black"/>
<path fill-rule="evenodd" clip-rule="evenodd" d="M146.038 40.1956C145.94 43.4211 143.806 46.1262 140.939 47.413C141.785 48.912 142.096 50.9476 142.127 52.6917C142.127 53.1469 142.176 54.3199 142.812 54.2546C142.979 54.2399 143.136 54.1921 143.285 54.1226L143.279 53.8816C143.247 52.1368 142.937 50.1005 142.089 48.6015C144.956 47.3154 147.107 44.611 147.189 41.3848C147.151 39.8051 146.53 38.6643 145.461 37.9844C145.817 38.585 146.016 39.3239 146.038 40.1956Z" fill="black"/>
<path fill-rule="evenodd" clip-rule="evenodd" d="M145.315 54.5846L146.299 57.7912C144.784 59.078 143.138 60.0565 141.086 60.0389C139.977 60.0333 138.986 59.7102 138.195 59.151C139.033 60.4217 140.488 61.2183 142.237 61.2288C144.289 61.2436 145.934 60.2679 147.449 58.9797L145.87 53.833C145.708 54.0662 145.525 54.3338 145.315 54.5846Z" fill="black"/>
<path fill-rule="evenodd" clip-rule="evenodd" d="M103.012 41.9703C103.615 43.0794 103.876 44.367 103.974 45.6047C104.092 44.936 104.239 44.3031 104.425 43.6969C104.345 43.5135 104.259 43.3351 104.163 43.1602C104.33 43.1111 104.496 43.0549 104.662 42.9916L104.739 42.7858C105.065 41.9064 105.506 41.0586 106.092 40.1953C105.228 40.9771 104.121 41.6451 103.012 41.9703Z" fill="black"/>
<path fill-rule="evenodd" clip-rule="evenodd" d="M104.698 53.3732L104.703 53.3268C104.799 52.5654 104.89 51.8089 104.968 51.0524C104.843 50.8409 104.73 50.6211 104.626 50.3956C104.284 49.6131 104.072 48.7653 103.958 47.9336C103.893 49.3511 103.729 50.7377 103.55 52.1376C103.469 52.741 103.484 53.4575 104.234 53.4575C104.388 53.461 104.543 53.4294 104.698 53.3732Z" fill="black"/>
<path fill-rule="evenodd" clip-rule="evenodd" d="M100.1 37.235L101.427 32.2787H101.917C102.311 32.2745 102.668 32.3222 102.978 32.4241C102.746 31.5032 101.913 31.0768 100.764 31.0881H100.275L98.5004 37.7189C99.0328 37.7 99.5786 37.5223 100.1 37.235Z" fill="black"/>
<path fill-rule="evenodd" clip-rule="evenodd" d="M74.6279 45.8494C74.9433 44.9545 75.6731 43.1458 76.6987 42.4743C76.8103 41.7016 76.7794 41.0273 76.3278 41.0273C74.8941 41.0434 73.8517 43.5532 73.4766 44.6426C73.2814 45.213 72.4827 48.5383 73.4766 48.553C73.7176 48.5558 73.9417 48.4884 74.1503 48.3676C74.2093 47.3772 74.5162 46.1655 74.6279 45.8494Z" fill="black"/>
<path fill-rule="evenodd" clip-rule="evenodd" d="M49.2772 45.8332C49.5743 44.8042 50.3441 42.8641 51.5158 42.3471C51.5123 41.6257 51.3718 41.0273 50.93 41.0273C49.4464 41.0273 48.4532 43.4541 48.1273 44.6426C47.9159 45.4097 47.427 48.4884 48.7461 48.553C48.848 48.5474 48.9463 48.5235 49.044 48.4849C48.9435 47.5205 49.1641 46.2807 49.2772 45.8332Z" fill="black"/>
<path fill-rule="evenodd" clip-rule="evenodd" d="M111.234 45.9473C111.665 44.8606 112.61 42.9296 113.617 42.3614C113.655 41.6119 113.521 40.9903 112.967 41.0113C111.793 41.0598 110.571 43.4888 110.066 44.7588C109.922 45.1486 108.763 48.6024 110.002 48.5877C110.214 48.5877 110.419 48.5434 110.613 48.4633C110.712 47.4448 111.14 46.1762 111.234 45.9473Z" fill="black"/>
<path fill-rule="evenodd" clip-rule="evenodd" d="M140.58 41.8917C140.336 42.4122 139.799 42.8364 139.309 43.1462C138.642 43.5852 137.697 43.9765 136.882 44.0249C137.208 42.9987 137.844 42.2991 138.625 41.7779C139.049 41.4836 139.522 41.2075 140.011 41.0923C140.726 40.9294 140.873 41.2567 140.58 41.8917Z" fill="black"/>
</svg>
