<svg width="172" height="102" viewBox="0 0 172 102" fill="none" xmlns="http://www.w3.org/2000/svg">
<path d="M107.446 34.873C106.399 34.873 104.928 36.515 104.928 37.2978C104.928 37.6892 105.218 37.861 105.574 37.861C106.645 37.861 108.102 36.4386 108.102 35.5031C108.102 35.2024 107.875 34.873 107.446 34.873Z" fill="black"/>
<path d="M151.843 34.873C150.796 34.873 149.325 36.515 149.325 37.2978C149.325 37.6892 149.614 37.861 149.971 37.861C151.042 37.861 152.499 36.4386 152.499 35.5031C152.499 35.2024 152.267 34.873 151.843 34.873Z" fill="black"/>
<path d="M79.5442 24C70.0957 24 55.3033 36.6774 47.2825 42.1474C49.5253 37.6702 51.6571 33.3553 53.9384 30.0762C54.9512 28.6204 54.6667 28.2003 54.2326 28.2003C53.7985 28.2003 52.1876 28.8208 45.9851 29.5989C39.8839 30.3626 36.5946 33.6322 36.5946 37.4363C36.5946 39.2358 37.3904 40.725 38.2827 41.4219C38.601 41.6653 38.9048 41.5221 38.5624 41.0353C38.1138 40.3957 37.482 39.2072 37.482 38.0425C37.482 35.551 39.1605 33.2503 42.0977 32.1716C44.6057 31.2456 46.8533 31.2313 50.5671 30.6967C45.3244 39.3886 36.6669 64.1564 25.352 64.1564C21.6044 64.1564 19.2315 61.9941 18.0787 59.9464C17.7267 59.3164 17.5627 59.0682 16.9887 59.0682C16.4003 59.0682 16 59.4691 16 60.0085C16 62.6576 21.2668 64.9296 25.0963 64.9296C35.355 64.9296 41.4418 53.7557 46.8002 43.1068C49.8966 51.4455 52.887 63.4213 62.9238 63.4213C66.9993 63.4213 71.1665 60.4429 73.0426 58.0658C73.5153 57.4596 73.3417 57.0969 72.8256 57.6363C71.2292 59.2925 67.5491 62.1755 63.5074 62.1755C57.5943 62.1755 53.5815 56.6291 49.5108 42.6391C56.1136 37.4698 72.0105 25.0978 79.6888 25.0978C81.4396 25.0978 82.6792 25.5894 82.6792 26.3961C82.6792 27.3173 81.6036 28.1669 81.6036 28.4008C81.6036 28.6299 81.8351 28.8065 82.1197 28.8065C83.1036 28.8065 84.0296 27.661 84.0296 26.5345C84.0296 25.0882 81.9702 24 79.5442 24Z" fill="black"/>
<path fill-rule="evenodd" clip-rule="evenodd" d="M155.378 43.8473C155.547 43.5705 155.696 43.4368 155.817 43.4368C155.889 43.4368 156 43.4798 156 43.6134C156 45.7518 150.27 52.2003 146.31 52.2003C144.386 52.2003 143.344 51.0213 143.388 48.945C141.912 51.0261 140.373 52.2003 138.54 52.2003C135.854 52.2003 134.267 49.2791 133.785 44.864C132.511 47.494 131.503 49.6228 131.084 50.5202C130.433 51.9187 129.724 52.2003 128.841 52.2003C128.441 52.2003 128.18 52.1764 128.18 51.8137C128.18 51.541 128.531 50.8143 128.994 49.8573L129.015 49.8137C130.38 46.9642 135.203 36.9072 138.116 31.461C136.176 33.4085 134.152 34.8909 132.455 36.1337C130.105 37.8547 128.383 39.116 128.383 40.5157C128.383 41.5467 129.116 42.024 129.955 42.024C130.63 42.024 131.156 41.8617 131.393 41.7328C131.73 41.5467 131.928 41.8426 131.576 42.2149C131.185 42.6302 130.028 43.2364 129.111 43.2364C128.33 43.2364 127.64 42.9691 127.182 42.5252C126.68 42.2388 126.241 42.1099 125.87 42.1099C124.804 42.1099 124.24 42.6731 124.24 43.4321C124.24 44.1762 124.774 44.8894 125.344 45.6519C126 46.5278 126.704 47.4687 126.704 48.5966C126.704 50.7159 124.553 52.1955 122.523 52.1955C121.312 52.1955 119.533 51.4127 119.6 50.5631C119.624 50.2004 120.01 49.8376 120.642 49.8376C120.939 49.8376 121.143 50.0538 121.387 50.312C121.748 50.6945 122.197 51.1693 123.164 51.1693C123.936 51.1693 124.746 50.6156 124.746 49.6562C124.746 48.844 124.145 47.9996 123.534 47.1428C123.147 46.5997 122.756 46.0517 122.513 45.5036C120.483 48.9593 117.015 52.2003 114.136 52.2003C113.123 52.2003 112.467 51.6944 112.467 50.7588C112.467 49.8444 113.363 48.1124 114.134 46.6233C114.716 45.5006 115.226 44.5161 115.226 44.1242C115.226 43.8951 115.086 43.8044 114.845 43.8044C113.783 43.8044 111.005 46.0907 109.814 48.5059C109.687 48.7634 109.569 49.0075 109.457 49.2384C108.508 51.1984 108.025 52.1955 106.592 52.1955C106.269 52.1955 105.917 52.1955 105.917 51.8423C105.917 51.5051 106.399 50.5306 107.021 49.2733C107.429 48.4488 107.897 47.5025 108.329 46.5346C105.883 49.4367 102.975 52.2003 100.776 52.2003C99.8833 52.2003 99.0682 51.7182 99.0682 50.6156C99.0682 49.7183 99.6421 48.3293 100.327 46.988C97.1534 49.914 93.0731 52.2003 90.1696 52.2003C89.7982 52.2003 89.422 51.9951 89.422 51.6609C89.422 51.3252 89.7561 51.0971 90.3862 50.6667C90.6161 50.5098 90.8853 50.3259 91.1921 50.1001C93.1406 48.6634 95.1325 45.7804 95.1325 44.5012C95.1325 44.0096 94.93 43.4989 94.3367 43.4989C92.229 43.4989 90.1792 47.0549 87.9751 51.6848C84.8256 58.3147 82.2597 62.916 75.6714 66.114C75.0106 66.4338 74.3402 66.6581 74.0074 66.6581C73.747 66.6581 73.747 66.4958 73.9495 66.3908C80.4721 63.0774 82.4778 58.4502 85.3769 51.7621C85.6184 51.205 85.866 50.6337 86.123 50.0476C84.4639 51.5655 82.6359 52.2003 81.5507 52.2003C80.5379 52.2003 79.8819 51.6944 79.8819 50.7588C79.8819 49.8444 80.7787 48.1124 81.5497 46.6233C82.131 45.5006 82.6407 44.5161 82.6407 44.1242C82.6407 43.8951 82.5588 43.8044 82.3176 43.8044C81.2613 43.8044 78.599 46.0668 77.398 48.5059C77.2733 48.7587 77.157 48.9987 77.0469 49.2258C76.0929 51.1942 75.6075 52.1955 74.1762 52.1955C73.8531 52.1955 73.501 52.1955 73.501 51.8423C73.501 51.5217 74.0086 50.4955 74.6104 49.2786C75.487 47.5063 76.5637 45.3295 76.5637 44.339C76.5637 44.0239 76.4527 43.8044 76.1199 43.8044C74.4319 43.8044 71.321 48.315 70.5541 49.8758C69.7631 51.5034 69.3339 52.1955 68.0075 52.1955C67.6844 52.1955 67.3323 52.1955 67.3323 51.8423C67.3323 51.5443 67.9012 50.2398 68.5316 48.7944C69.3146 46.9991 70.1924 44.9865 70.1924 44.4153C70.1924 44.2483 70.1296 44.2053 70.038 44.2053C69.6811 44.2053 68.62 45.1456 67.366 46.8067C65.35 49.4892 62.5237 52.6347 59.0944 52.6347C57.2954 52.6347 55.8485 51.4032 55.8485 49.3698C55.8485 46.0859 60.4594 41.3414 64.2214 41.3414C65.2535 41.3414 66.059 41.8092 66.059 42.7018C66.059 45.3222 61.3082 48.0954 58.2649 48.4248C58.2214 48.6921 58.1925 48.9546 58.1925 49.2219C58.1925 50.3149 58.7954 51.1979 60.0832 51.1979C62.4883 51.1979 64.3987 48.8266 66.2368 46.545C67.9408 44.4297 69.5828 42.3915 71.4994 42.3915C72.2084 42.3915 72.7052 42.7734 72.7052 43.5943C72.7052 44.2815 72.5288 44.753 72.2931 45.3829C72.2505 45.4968 72.206 45.6158 72.1602 45.7423C73.6361 43.9428 75.4302 42.3915 77.2196 42.3915C78.5363 42.3915 79.1199 43.4416 78.6713 45.1504C80.5668 43.3461 81.8739 42.3915 83.6054 42.3915C84.3674 42.3915 84.9751 42.845 84.9751 43.6134C84.9751 44.2449 84.3657 45.411 83.7332 46.6212C83.0509 47.9267 82.3417 49.2836 82.3417 50.0763C82.3417 50.4915 82.5105 50.7111 82.8096 50.7111C83.5812 50.7111 85.7082 49.7421 87.1166 47.809C87.9944 45.895 89.3931 42.9452 90.4638 41.0073C90.8496 40.3057 91.8625 39.9429 92.4654 39.9429C92.7355 39.9429 93.2274 40.0527 92.9911 40.5634C92.9346 40.6867 92.7413 41.0233 92.4738 41.4891C92.0787 42.1771 91.5216 43.1471 91.004 44.1289C92.3496 43.0884 93.8592 42.3915 95.2483 42.3915C96.4975 42.3915 97.4331 43.0788 97.4331 44.2864C97.4331 46.3628 95.4702 48.8591 93.2129 50.5393C96.5119 49.1837 100.481 46.0239 102.338 43.5514C102.376 43.4971 102.41 43.4468 102.441 43.4009C102.479 43.3458 102.512 43.2971 102.541 43.2555C102.97 42.6445 103.722 42.3915 104.301 42.3915C104.571 42.3915 105.063 42.5013 104.832 43.012C104.776 43.1312 104.591 43.452 104.333 43.8973C103.384 45.5389 101.456 48.8721 101.456 50.0285C101.456 50.5058 101.61 50.754 101.914 50.754C103.419 50.754 107.518 46.5489 109.486 43.4416C109.684 42.8736 110.489 42.3915 111.319 42.3915C111.632 42.3915 112.057 42.5156 111.854 43.0216C111.719 43.3414 111.102 44.8163 110.923 45.3365C112.828 43.5084 114.319 42.3915 116.132 42.3915C116.967 42.3915 117.55 42.8354 117.55 43.6182C117.55 44.2529 116.946 45.4089 116.317 46.6111C115.636 47.9133 114.926 49.2697 114.926 50.0763C114.926 50.3865 115.023 50.7159 115.409 50.7159C117.116 50.7159 120.627 47.5083 122.407 43.5991C122.846 42.2149 124.336 41.0646 126.627 41.0169C126.798 38.9883 129.199 37.3629 130.392 36.5545C130.51 36.4746 130.617 36.4027 130.708 36.3392C135.422 33.0653 138.524 29.6983 140.667 27.3724C142.345 25.5511 143.435 24.3682 144.251 24.3682C144.516 24.3682 144.642 24.5209 144.642 24.8168C144.642 25.405 143.91 26.3045 143.247 27.1189C142.915 27.5272 142.6 27.9141 142.404 28.2296C140.397 31.4706 136.732 38.8069 134.074 44.2769C134.281 44.1309 134.563 43.9305 134.898 43.6929C137.057 42.159 141.4 39.0742 141.806 39.0742C142.481 39.0742 142.785 40.024 142.182 40.2531C141 40.7114 136.852 43.5227 135.994 44.2912C136.283 47.346 137.431 50.8495 139.298 50.8495C141.274 50.8495 143.194 47.7209 144.648 45.3524C145.053 44.6919 145.422 44.0905 145.746 43.6325C146.503 42.5729 146.831 42.3915 147.926 42.3915C148.244 42.3915 148.534 42.5586 148.534 42.802C148.534 43.1257 148.145 43.7743 147.655 44.5933C146.814 45.9964 145.674 47.8999 145.674 49.5273C145.674 50.2624 146.055 50.9306 146.769 50.9306C149.479 50.9306 154.201 45.7327 155.378 43.8473ZM63.8308 43.2315C63.8308 42.7828 63.6234 42.6014 63.2761 42.6014C62.1234 42.6014 59.3212 44.988 58.4531 47.6657C60.8453 47.1407 63.8308 44.42 63.8308 43.2315Z" fill="black"/>
<path d="M47.1475 77.9034C46.9642 77.9034 46.7761 77.8986 46.6845 77.784C46.6362 77.7315 46.6169 77.5406 46.6169 77.2065V77.1778C46.6169 76.7339 46.6218 76.2805 46.6268 75.8318C46.6317 75.3784 46.6367 74.9297 46.6367 74.4858V74.3856C46.6367 74.2137 46.6268 73.746 46.6897 73.6553C46.7765 73.5216 47.0322 73.5168 47.2203 73.5121C47.2541 73.5121 47.2878 73.5121 47.3167 73.5121L47.3842 73.5073V73.1445H44.9052V73.4357L44.915 73.5121H44.9874C45.6915 73.5359 45.735 73.5359 45.735 74.2233C45.735 74.6147 45.7301 75.0013 45.7205 75.3975H43.0148V75.3879C43.0246 74.9202 43.0292 74.4476 43.0389 73.9798V73.956C43.0389 73.7698 43.0438 73.6791 43.1739 73.6028C43.2896 73.5264 43.4922 73.5216 43.6562 73.5121L43.8154 73.5073V73.1445H41.3556V73.5073L41.5437 73.5216C41.9729 73.5503 42.1176 73.555 42.1176 74.0467C42.1176 74.5431 42.1127 75.0442 42.1078 75.5454C42.0979 76.0466 42.0933 76.543 42.0933 77.0394V77.111C42.0933 77.2876 42.0982 77.6217 42.0162 77.7458C41.9197 77.8843 41.6834 77.8986 41.4953 77.9081L41.3458 77.9129L41.3602 78.29H43.8537V77.9129L43.7138 77.9081C43.1833 77.8986 43.0097 77.8938 43.0097 77.3258C43.0097 77.0633 43.0097 76.8008 43.0097 76.5382C43.0146 76.3043 43.0146 76.0657 43.0146 75.827H45.7203C45.7203 75.9941 45.7203 76.1564 45.7252 76.3234C45.7252 76.5096 45.7301 76.7005 45.7301 76.8867C45.7301 77.6026 45.6578 77.7363 45.6385 77.7602C45.518 77.8986 45.2816 77.9033 45.0791 77.9081C45.0259 77.9081 44.9778 77.9081 44.9295 77.9129H44.8572V78.29H47.3941V77.9177L47.3266 77.9129C47.2735 77.9034 47.2103 77.9034 47.1475 77.9034Z" fill="black"/>
<path fill-rule="evenodd" clip-rule="evenodd" d="M48.1843 75.7222C48.1843 74.233 49.4238 73.0684 51.0106 73.0684C51.8739 73.0684 52.5974 73.3977 53.1569 74.0421C53.6151 74.5815 53.7115 75.264 53.7115 75.7461C53.7115 76.3714 53.4318 77.0396 52.9736 77.4883C52.3707 78.0897 51.7196 78.3666 50.9141 78.3666C50.2678 78.3666 49.7228 78.19 49.2357 77.8367C48.4785 77.2926 48.1843 76.7007 48.1843 75.7222ZM51.0689 77.9702C51.45 77.9702 51.8889 77.7506 52.1879 77.4117C52.5833 76.9488 52.6316 76.2376 52.6316 75.7459C52.6316 75.3354 52.4628 74.6242 52.2217 74.2662C51.8406 73.7126 51.4162 73.45 50.876 73.45C49.6847 73.45 49.241 74.7913 49.241 75.6314C49.241 76.7674 49.8824 77.9702 51.0689 77.9702Z" fill="black"/>
<path d="M59.0319 72.9433L58.8197 72.9147L58.7956 72.9529C58.6751 73.1247 58.5786 73.1724 58.3809 73.1724H55.3327C55.0963 73.1724 54.9372 73.1581 54.8262 72.9672L54.8118 72.9385L54.59 72.9004L54.1945 74.4564L54.3055 74.4898C54.3682 74.5089 54.426 74.528 54.4936 74.5375L54.5563 74.5423L54.5804 74.4898C54.7492 74.0936 54.9614 73.602 55.4292 73.5734C55.5546 73.5638 55.6945 73.5638 55.8199 73.5638H56.2154V75.0578C56.2154 75.3919 56.2154 75.7308 56.2105 76.0697C56.2056 76.4038 56.2006 76.7427 56.2006 77.0769C56.2006 77.2344 56.2006 77.5971 56.1138 77.7308C56.0222 77.8692 55.81 77.8835 55.6219 77.8978C55.564 77.8978 55.5062 77.9026 55.4579 77.9122L55.3952 77.9217L55.3853 78.2892H58.0283V77.9169L57.8788 77.9026C57.3386 77.8501 57.1361 77.831 57.1361 77.2391C57.1361 76.0077 57.1553 74.7619 57.1699 73.5543C57.2711 73.5495 57.3628 73.5495 57.4737 73.5495C57.7534 73.5495 58.2309 73.5495 58.4721 73.7834C58.5541 73.8645 58.6409 74.1414 58.6988 74.485L58.7087 74.5471H58.7714C58.8534 74.5471 58.9402 74.5375 59.0222 74.5232L59.0849 74.5137V74.4516C59.0849 73.9743 59.0849 73.4875 59.0414 73.0006L59.0319 72.9433Z" fill="black"/>
<path d="M64.1589 76.7337C64.0142 77.1585 63.72 77.6977 63.3727 77.8314C63.1942 77.8982 62.9579 77.9364 62.7216 77.9364C62.4081 77.9364 61.9017 77.9077 61.7859 77.8648C61.776 77.7884 61.7715 77.545 61.7715 77.125V76.0368C61.7715 75.9222 61.7764 75.8505 61.7764 75.8123C61.7908 75.8123 61.8053 75.8123 61.8295 75.8123H62.0369C62.4903 75.8123 62.7604 75.8553 62.8472 75.9364C62.9629 76.0462 62.9822 76.2277 63.0015 76.4043L63.0159 76.5379H63.3584L63.3633 74.7098H63.0353L63.0112 74.8386C62.9581 75.1489 62.9196 75.3541 62.5965 75.4305C62.4373 75.4639 62.2637 75.4688 62.1093 75.4688H61.8441C61.8248 75.4688 61.8007 75.4688 61.7813 75.464C61.7813 75.4449 61.7813 75.4305 61.7813 75.4114C61.7813 75.1393 61.7813 74.8673 61.7862 74.5952C61.7911 74.3231 61.7961 74.0511 61.7961 73.779C61.7961 73.7503 61.7961 73.7217 61.7961 73.6931C61.7912 73.6167 61.7862 73.5451 61.801 73.4735C61.8347 73.464 61.9071 73.4496 62.0904 73.4496C63.0357 73.4496 63.4746 73.4878 63.9714 74.3804L64.0003 74.4329L64.3186 74.3232L64.3042 74.2563C64.2222 73.9413 64.092 73.6406 63.9714 73.3542C63.9328 73.273 63.9038 73.1919 63.8701 73.1155L63.8509 73.0726L63.8076 73.0678C63.6436 73.0487 63.4651 73.0439 63.2577 73.0439C62.9491 73.0439 62.6356 73.063 62.3365 73.0821C62.0375 73.1012 61.724 73.1203 61.4201 73.1203C61.2272 73.1203 61.0295 73.1155 60.8317 73.1107C60.634 73.106 60.4411 73.106 60.2433 73.106H60.171L60.1565 73.4641L60.253 73.4688C60.7739 73.4879 60.8848 73.4926 60.8848 74.0224C60.8848 74.5188 60.8848 75.0153 60.8897 75.5117C60.8897 76.0129 60.8897 76.5092 60.8897 77.0009C60.8897 77.1822 60.8897 77.6548 60.774 77.8027C60.7113 77.8839 60.475 77.9268 60.0698 77.9268H59.819V78.2896H59.8962C60.2531 78.2801 60.6052 78.2753 60.9573 78.2753H61.4589C61.9219 78.2753 62.3801 78.2801 62.8431 78.2801C63.3061 78.2848 63.7691 78.2896 64.2273 78.2896H64.29L64.3045 78.2275C64.3768 77.8505 64.4105 77.4591 64.4492 77.0772C64.4541 76.9818 64.4636 76.8815 64.4732 76.7813L64.4831 76.7049L64.1793 76.6811L64.1589 76.7337Z" fill="black"/>
<path d="M69.9322 76.8533C69.7682 77.1062 69.5415 77.4547 69.3389 77.6217C69.0881 77.827 68.6106 77.9368 68.2682 77.9368H68.0994C67.6701 77.9368 67.5544 77.8938 67.5254 77.8699C67.5156 77.8556 67.4724 77.7745 67.4724 77.3497V77.3258C67.4724 76.7721 67.4773 76.2137 67.4822 75.66C67.4871 75.1015 67.4921 74.5431 67.4921 73.9942C67.4921 73.8271 67.4921 73.6553 67.6272 73.5789C67.7236 73.5264 68.0227 73.5121 68.2445 73.5121H68.3458V73.1445H65.7847V73.5025L65.8523 73.512C65.9535 73.5216 66.0403 73.5311 66.1175 73.5407C66.5227 73.5741 66.5564 73.5789 66.5564 74.1517V77.0299C66.5564 77.2399 66.5564 77.6313 66.4407 77.7888C66.3539 77.8986 65.8861 77.9129 65.7076 77.9177L65.5533 77.9224V78.29H65.6305C66.1176 78.2804 66.5951 78.2804 67.0774 78.2804H67.8539C68.4857 78.2804 69.1224 78.29 69.7542 78.2948L69.8025 78.2995L69.8217 78.2518C70.0147 77.8652 70.1835 77.4022 70.3185 76.8819L70.3378 76.8199L70.0243 76.7053L69.9322 76.8533Z" fill="black"/>
<path d="M71.1665 73.5025L71.2293 73.5121C71.3016 73.5168 71.3643 73.5264 71.427 73.5264C71.7887 73.5598 71.9141 73.5693 71.9141 74.018C71.9141 74.0944 71.9092 74.166 71.9043 74.2424C71.9043 74.3235 71.9043 74.3999 71.9043 74.4762C71.9043 74.9058 71.8994 75.3449 71.8944 75.7888C71.8944 76.228 71.8895 76.6671 71.8895 77.1015C71.8895 77.1731 71.8895 77.2351 71.8895 77.2972C71.8994 77.8317 71.8994 77.8986 71.2384 77.9177L71.166 77.9224V78.29H73.5679V77.9224L73.5004 77.9177C72.8058 77.8747 72.8058 77.8461 72.8058 77.1969V77.1015C72.8058 76.7148 72.8058 76.3282 72.8058 75.9416C72.8009 75.555 72.8009 75.1731 72.8009 74.7865V74.6958C72.796 73.9464 72.825 73.7364 72.8541 73.6934C72.9312 73.555 73.1531 73.5407 73.346 73.5264C73.4087 73.5216 73.4667 73.5168 73.5148 73.5121L73.5776 73.4977V73.1445H71.166L71.1665 73.5025Z" fill="black"/>
<path d="M79.0185 76.7337C78.8738 77.1585 78.5796 77.7025 78.2324 77.8314C78.0539 77.8982 77.8224 77.9316 77.5813 77.9316C77.2726 77.9316 76.7613 77.9078 76.6504 77.8648C76.6405 77.7884 76.636 77.545 76.636 77.125V76.0368C76.636 75.9222 76.636 75.8505 76.6409 75.8171C76.6507 75.8171 76.6698 75.8123 76.6892 75.8123H76.9014C77.3499 75.8123 77.6248 75.8553 77.7068 75.9364C77.8275 76.0462 77.8419 76.2277 77.8612 76.4043L77.8756 76.5379H78.218L78.2279 74.7098H77.8951L77.8759 74.8386C77.8228 75.1489 77.7842 75.3541 77.4611 75.4305C77.3019 75.4639 77.1234 75.4688 76.9739 75.4688H76.7038C76.6846 75.4639 76.6604 75.4688 76.6411 75.464C76.6411 75.4449 76.6411 75.4305 76.6411 75.4114C76.6411 75.1393 76.646 74.8673 76.651 74.5952C76.651 74.3231 76.6559 74.0511 76.6559 73.779C76.6559 73.7503 76.6559 73.7265 76.6559 73.6931C76.651 73.6167 76.651 73.5451 76.6658 73.4735C76.6947 73.464 76.7718 73.4496 76.9552 73.4496C77.8956 73.4496 78.3345 73.4878 78.8313 74.3804L78.865 74.4329L79.1833 74.3232L79.1641 74.2563C79.0869 73.9413 78.9567 73.6406 78.8313 73.3494C78.7975 73.273 78.7637 73.1919 78.73 73.1155L78.7108 73.0726L78.6673 73.0678C78.5082 73.0487 78.3297 73.0439 78.1223 73.0439C77.8136 73.0439 77.5001 73.063 77.1963 73.0821C76.7043 73.1107 76.1979 73.1203 75.6915 73.1107C75.4986 73.106 75.3008 73.106 75.1031 73.106H75.0307L75.0208 73.464L75.1125 73.4688C75.6382 73.4879 75.7443 73.4926 75.7443 74.0272C75.7443 74.5188 75.7492 75.0152 75.7492 75.5164C75.7541 76.0128 75.7541 76.5092 75.7541 77.0008C75.7541 77.1822 75.7541 77.6548 75.6384 77.8027C75.5708 77.8839 75.3345 77.9268 74.9342 77.9268H74.6834V78.2896H74.7606C75.1127 78.2801 75.4696 78.2753 75.8217 78.2753H76.3233C76.7815 78.2753 77.2445 78.2801 77.7075 78.2801C78.1657 78.2848 78.6287 78.2896 79.0917 78.2896H79.1544L79.1643 78.2275C79.2415 77.8457 79.2752 77.4543 79.309 77.0724C79.3189 76.9722 79.3282 76.8767 79.3379 76.7813L79.3428 76.7049L79.039 76.681L79.0185 76.7337Z" fill="black"/>
<path fill-rule="evenodd" clip-rule="evenodd" d="M83.2437 75.8552C83.5572 76.3277 83.9334 76.8146 84.4591 77.4208C84.7967 77.8122 84.9898 77.9219 85.5011 78.0126L85.5734 78.0221L85.5203 78.3706L84.0782 78.2751C83.7519 78.0722 83.2635 77.3299 82.8567 76.7116C82.8426 76.69 82.8285 76.6687 82.8145 76.6475C82.6602 76.404 82.5203 76.194 82.4142 76.0508C82.284 76.0461 82.149 76.0413 82.0139 76.0413H81.9512C81.874 76.0413 81.8354 76.0461 81.821 76.0556V77.2966C81.821 77.4303 81.821 77.6785 81.8837 77.774C81.9367 77.8551 82.1586 77.9028 82.5444 77.9171L82.6168 77.9219L82.6312 77.9935V78.2895H82.554C81.7824 78.2704 81.0251 78.2704 80.2534 78.2895H80.1763V77.9219L80.2534 77.9171C80.8708 77.9076 80.948 77.8217 80.948 77.1678V74.2418C80.948 73.5927 80.9287 73.5306 80.2534 73.4734L80.1859 73.4638V73.1202L80.2679 73.1249C80.4512 73.144 80.6248 73.144 80.8081 73.144C81.5653 73.144 81.8981 73.1202 82.1441 73.0963C82.2694 73.0868 82.366 73.082 82.4865 73.082C83.3595 73.082 84.2469 73.5402 84.2469 74.5617C84.2469 75.1249 83.7453 75.6356 83.2437 75.8552ZM81.8406 75.7018H81.8792C82.4097 75.7018 83.3018 75.5443 83.3018 74.5133C83.3018 74.141 83.1089 73.783 82.8243 73.6159C82.6362 73.5061 82.3951 73.4584 82.0623 73.4584C82.0092 73.4584 81.8983 73.4584 81.8308 73.4679V73.4727L81.8357 74.8331V75.0622C81.8357 75.2722 81.8357 75.487 81.8406 75.7018Z" fill="black"/>
<path d="M88.0905 75.278C87.9795 75.2207 87.8686 75.1634 87.7529 75.1014C87.4201 74.92 86.9571 74.6718 86.9571 74.2279C86.9571 73.7601 87.2995 73.4212 87.7722 73.4212C88.4329 73.4212 88.7609 74.0035 88.9731 74.5143L88.9972 74.5715L89.33 74.4808L89.2239 73.6074L89.2141 73.5214C89.2042 73.4069 89.1948 73.2923 89.161 73.1778L89.1321 73.0966L89.0549 73.1348C88.9729 73.173 88.8716 73.1873 88.7704 73.1587L88.6594 73.1348C88.3989 73.068 88.1336 73.0059 87.8587 73.0059C87.0533 73.0059 86.1948 73.6121 86.1948 74.519C86.1948 75.0918 86.542 75.5691 87.1931 75.9032C87.2799 75.9462 87.3716 75.9939 87.4681 76.0369C87.9841 76.2755 88.5725 76.5524 88.5725 77.1586C88.5725 77.655 88.1674 78.0464 87.6513 78.0464C87.5163 78.0464 87.3716 78.013 87.2028 77.9461C86.8218 77.7934 86.6626 77.4068 86.5083 77.0297C86.4842 76.9676 86.4552 76.9104 86.4311 76.8531L86.407 76.8006L86.0646 76.8578L86.0744 76.9247C86.1131 77.3208 86.1709 77.7886 86.2674 78.2468L86.2772 78.2946L86.3255 78.3041C86.6921 78.3709 87.0779 78.433 87.4734 78.433C87.6133 78.433 87.7435 78.4234 87.8882 78.4091C88.6358 78.3184 89.4268 77.7647 89.4268 76.9199C89.4268 75.9557 88.7754 75.6265 88.0905 75.278Z" fill="black"/>
<path d="M95.9958 75.2779C95.8849 75.2207 95.7739 75.1634 95.6582 75.1013C95.3206 74.92 94.8575 74.6718 94.8575 74.2279C94.8575 73.7601 95.2048 73.4212 95.6775 73.4212C96.3382 73.4212 96.6662 74.0035 96.8784 74.5095L96.9025 74.5715L97.2353 74.4856L97.1292 73.6074L97.1243 73.5358C97.1099 73.4164 97.1002 73.2923 97.0664 73.1778L97.0424 73.0966L96.9604 73.13C96.8688 73.173 96.7771 73.1825 96.671 73.1587L96.5698 73.1348C96.3093 73.0728 96.044 73.0059 95.7595 73.0059C94.9637 73.0059 94.1003 73.6121 94.1003 74.519C94.1003 75.0918 94.4428 75.5691 95.0987 75.9032C95.1855 75.9462 95.2772 75.9891 95.3785 76.0369C95.8945 76.2803 96.4781 76.5524 96.4781 77.1538C96.4781 77.655 96.073 78.0464 95.5521 78.0464C95.4267 78.0464 95.2772 78.013 95.1035 77.9461C94.7273 77.7934 94.5682 77.4068 94.4138 77.0297C94.3898 76.9724 94.3655 76.9104 94.3367 76.8531L94.3126 76.7958L93.9702 76.8579L93.98 76.9247C94.0332 77.4163 94.0813 77.8268 94.173 78.2421L94.1828 78.2946L94.2311 78.3041C94.5977 78.3709 94.9883 78.433 95.379 78.433C95.5141 78.433 95.6539 78.4235 95.7938 78.4091C96.5414 78.3184 97.3324 77.76 97.3324 76.9199C97.3324 75.9605 96.6855 75.6312 95.9958 75.2779Z" fill="black"/>
<path d="M98.88 73.5025L98.9427 73.5121C99.015 73.5168 99.0777 73.5264 99.1404 73.5264C99.5022 73.5598 99.6276 73.5693 99.6276 74.018C99.6276 74.0944 99.6227 74.166 99.6227 74.2423C99.6178 74.3235 99.6178 74.3999 99.6178 74.4762C99.6178 74.9058 99.6129 75.3449 99.6129 75.7888C99.608 76.228 99.603 76.6671 99.603 77.1015C99.603 77.173 99.603 77.2351 99.603 77.2972C99.6129 77.8317 99.6129 77.8986 98.9519 77.9177L98.8795 77.9224V78.29H101.286V77.9224L101.214 77.9177C100.524 77.8747 100.524 77.8461 100.524 77.1969V77.1015C100.524 76.7148 100.524 76.3282 100.519 75.9416C100.519 75.555 100.519 75.1731 100.519 74.7865V74.7006C100.509 73.9464 100.543 73.7364 100.568 73.6934C100.65 73.555 100.867 73.5407 101.064 73.5264C101.122 73.5216 101.18 73.5168 101.233 73.5121L101.296 73.4977V73.1445H98.8795L98.88 73.5025Z" fill="black"/>
<path d="M106.37 73.5026L106.443 73.5074C107.325 73.5456 107.325 73.7938 107.325 74.6291V76.8009L107.065 76.5288C106.486 75.9178 105.907 75.3069 105.343 74.6959C105.121 74.462 104.904 74.2234 104.687 73.9895C104.547 73.832 104.407 73.6792 104.268 73.5265C104.176 73.431 104.075 73.3165 104.002 73.1876L103.978 73.1494H102.44V73.5026L102.507 73.5074C103.11 73.5456 103.322 73.6745 103.322 74.3141C103.322 74.8248 103.298 75.3546 103.279 75.8606C103.265 76.147 103.255 76.4334 103.245 76.7197C103.245 76.7579 103.245 76.8057 103.245 76.8582C103.24 77.1111 103.24 77.5837 103.139 77.7316C103.048 77.8748 102.797 77.8939 102.594 77.9083C102.56 77.913 102.522 77.9178 102.493 77.9178L102.421 77.9273V78.2901H104.658V77.9369L104.523 77.9178C104.292 77.8891 103.94 77.8509 103.843 77.6696C103.742 77.4786 103.742 76.9106 103.742 76.6958C103.732 75.9083 103.732 75.1064 103.732 74.3284C104.171 74.7866 104.615 75.2639 105.039 75.7221C105.232 75.9274 105.42 76.1326 105.613 76.3379C105.777 76.5192 105.941 76.6958 106.105 76.8724C106.274 77.0538 106.438 77.2352 106.607 77.4118C106.771 77.5884 106.988 77.8271 107.181 78.0705C107.253 78.166 107.335 78.2757 107.383 78.3808L107.412 78.4428L107.784 78.3282L107.774 78.2662C107.735 77.975 107.735 77.6743 107.735 77.3832C107.735 76.4381 107.764 75.4978 107.788 74.7054L107.793 74.6004C107.803 74.3856 107.817 73.8749 107.89 73.7604C108.049 73.5265 108.319 73.4978 108.56 73.4978H108.637V73.1494H106.37V73.5026Z" fill="black"/>
<path d="M114.044 76.7629C113.566 77.3977 113.113 78.0039 112.259 78.0039C110.986 78.0039 110.311 76.844 110.311 75.7032C110.311 74.6006 110.966 73.436 112.177 73.436C113.021 73.436 113.556 73.8942 113.812 74.8441L113.831 74.9013L114.188 74.8822L114.145 73.331L113.947 73.2355L113.913 73.288C113.875 73.3357 113.827 73.3548 113.749 73.3548C113.648 73.3548 113.518 73.3071 113.402 73.2689C113.363 73.2546 113.325 73.2403 113.286 73.226C112.857 73.0923 112.486 73.0303 112.11 73.0303C111.097 73.0303 110.147 73.5219 109.631 74.3142C109.37 74.7009 109.211 75.2402 109.211 75.708C109.211 77.2449 110.46 78.4 112.124 78.4C112.346 78.4 112.549 78.3857 112.732 78.3475C112.799 78.338 112.872 78.3237 112.934 78.3046C113.079 78.2759 113.214 78.2425 113.354 78.2425C113.46 78.2425 113.576 78.2616 113.687 78.2998L113.749 78.3237L113.778 78.2616C114.01 77.7843 114.203 77.3118 114.357 76.9156L114.381 76.8488L114.077 76.7151L114.044 76.7629Z" fill="black"/>
<path d="M119.455 76.7337C119.315 77.1585 119.021 77.6977 118.669 77.8314C118.495 77.8982 118.264 77.9316 118.018 77.9316C117.7 77.9316 117.174 77.9078 117.087 77.8696C117.077 77.8028 117.073 77.5593 117.073 77.125V76.0368C117.073 75.9222 117.077 75.8505 117.077 75.8171C117.092 75.8171 117.106 75.8124 117.126 75.8124H117.338C117.791 75.8124 118.061 75.8553 118.143 75.9365C118.264 76.0462 118.283 76.2228 118.303 76.3994L118.317 76.5379H118.659L118.669 74.7098H118.337L118.312 74.8434C118.259 75.1537 118.221 75.3541 117.898 75.4305C117.739 75.4639 117.565 75.4688 117.411 75.4688H117.145C117.116 75.4688 117.102 75.4688 117.078 75.464C117.078 75.4449 117.078 75.4305 117.078 75.4114C117.078 75.1393 117.083 74.8673 117.088 74.5952C117.092 74.3231 117.097 74.0511 117.097 73.779C117.097 73.7503 117.097 73.7265 117.093 73.6978C117.093 73.6215 117.088 73.5451 117.102 73.4735C117.131 73.464 117.208 73.4496 117.392 73.4496C118.337 73.4496 118.776 73.4878 119.273 74.3804L119.302 74.4329L119.62 74.3232L119.601 74.2563C119.528 73.946 119.398 73.6501 119.278 73.3637C119.239 73.2778 119.205 73.1967 119.167 73.1155L119.152 73.0726L119.109 73.0678C118.945 73.0487 118.766 73.0439 118.559 73.0439C118.25 73.0439 117.937 73.063 117.638 73.0821C117.339 73.1012 117.025 73.1203 116.721 73.1203C116.524 73.1203 116.331 73.1155 116.133 73.1107C115.935 73.106 115.738 73.106 115.545 73.106H115.472L115.458 73.4641L115.554 73.4688C116.075 73.4879 116.186 73.4926 116.186 74.0272C116.186 74.5188 116.186 75.0152 116.191 75.5164C116.191 76.0128 116.196 76.5092 116.196 77.0009C116.196 77.1822 116.196 77.6548 116.075 77.8027C116.013 77.8839 115.776 77.9268 115.371 77.9268H115.12V78.2132L115.13 78.2896H115.207C115.559 78.2801 115.912 78.2753 116.259 78.2753H116.76C117.223 78.2753 117.682 78.2801 118.145 78.2801C118.608 78.2848 119.071 78.2896 119.529 78.2896H119.592L119.601 78.2275C119.679 77.8552 119.712 77.4686 119.746 77.0915C119.756 76.9865 119.765 76.8863 119.775 76.7813L119.785 76.7049L119.476 76.6811L119.455 76.7337Z" fill="black"/>
<path d="M127.274 77.941C127.129 77.9267 126.738 77.8981 126.627 77.8074C126.526 77.7215 126.483 77.626 126.483 77.4685C126.483 77.1964 126.483 76.9244 126.483 76.6571C126.478 76.385 126.478 76.1129 126.478 75.8456V75.2108C126.478 74.6142 126.478 73.9936 126.492 73.3827V73.3254L126.347 73.292L126.323 73.2968C125.648 73.5402 125.06 73.7598 124.529 73.9698L124.481 73.9889L124.466 74.3182H124.548C124.674 74.3135 124.794 74.3135 124.915 74.3135C125.166 74.3135 125.407 74.3182 125.648 74.3182V77.3396C125.648 77.5162 125.556 77.6976 125.421 77.8026C125.267 77.9172 124.896 77.9267 124.741 77.9315L124.669 77.9363V78.2895H124.741C125.585 78.28 126.425 78.28 127.273 78.2895H127.346V78.0127L127.341 77.9458L127.274 77.941Z" fill="black"/>
<path fill-rule="evenodd" clip-rule="evenodd" d="M130.77 75.6746C131.195 75.3977 131.59 75.1352 131.59 74.5338C131.59 73.813 130.886 73.3262 130.23 73.3262C129.463 73.3262 128.841 73.9133 128.841 74.634C128.841 75.1734 129.285 75.5839 129.7 75.8846C129.683 75.8954 129.667 75.9056 129.651 75.9156C129.624 75.932 129.598 75.9479 129.574 75.9657C129.169 76.233 128.754 76.5146 128.754 77.1017C128.754 77.8988 129.507 78.3857 130.211 78.3857C130.949 78.3857 131.745 77.8416 131.745 77.0254C131.745 76.3428 131.243 75.9848 130.77 75.6746ZM129.555 74.4003C129.555 74.0089 129.883 73.6939 130.283 73.6939C130.611 73.6939 130.958 74.0567 130.958 74.4003C130.958 74.9063 130.833 75.102 130.418 75.4266C129.974 75.1784 129.555 74.9397 129.555 74.4003ZM129.395 77.1109C129.395 77.6455 129.723 77.994 130.23 77.994C130.674 77.994 130.973 77.5883 130.973 77.2112C130.973 76.6145 130.539 76.3807 130.037 76.1134C129.738 76.3138 129.395 76.6384 129.395 77.1109Z" fill="black"/>
<path fill-rule="evenodd" clip-rule="evenodd" d="M132.969 75.0683C132.969 74.0898 133.703 73.3213 134.638 73.3213C135.67 73.3213 136.215 74.1996 136.215 75.0683C136.215 75.9036 135.603 76.7818 135.039 77.3307C134.45 77.8988 133.982 78.1995 133.196 78.5336L133.143 78.5574L132.974 78.3331L133.023 78.2901C133.143 78.1756 133.269 78.0658 133.394 77.956C133.438 77.9156 133.483 77.8752 133.528 77.8347C133.784 77.6026 134.043 77.3679 134.281 77.1159C134.421 76.9728 134.561 76.82 134.691 76.6625C134.214 76.653 133.804 76.5145 133.5 76.2711C133.153 75.9895 132.969 75.5742 132.969 75.0683ZM134.908 76.3096H134.946C135.289 75.9468 135.443 75.355 135.443 74.9158C135.443 74.4624 135.27 73.6939 134.638 73.6939C134.045 73.6939 133.828 74.3908 133.828 74.8586C133.828 75.1975 133.905 76.3096 134.908 76.3096Z" fill="black"/>
<path d="M138.131 73.4355C137.933 73.4355 137.904 73.34 137.899 73.2446V73.1825L137.653 73.1396L137.629 73.2016C137.465 73.6932 137.33 74.1133 137.219 74.5142L137.2 74.5906L137.499 74.667L137.591 74.5142C137.764 74.2422 137.764 74.2422 138.179 74.2422C138.724 74.2422 139.269 74.2517 139.814 74.2517C139.674 74.5238 139.52 74.7863 139.385 75.0058L139.366 75.0393C139.129 75.4354 138.888 75.8507 138.657 76.266L138.454 76.6335C138.174 77.1538 137.88 77.6836 137.61 78.2182L137.571 78.2993L138.126 78.4473L138.189 78.4616L138.213 78.4043C138.57 77.6549 138.951 76.9008 139.312 76.1705C139.467 75.865 139.616 75.5595 139.771 75.2541C139.954 74.8913 140.142 74.519 140.316 74.1562C140.349 74.0894 140.383 74.0226 140.407 73.9558C140.451 73.8603 140.489 73.7744 140.537 73.6885L140.653 73.4785L138.131 73.4355Z" fill="black"/>
</svg>
