<svg width="172" height="102" viewBox="0 0 172 102" fill="none" xmlns="http://www.w3.org/2000/svg">
<mask id="mask0_2_511" style="mask-type:alpha" maskUnits="userSpaceOnUse" x="0" y="0" width="83" height="52">
<path fill-rule="evenodd" clip-rule="evenodd" d="M0 0H82.7264V51.8963H0V0Z" fill="white"/>
</mask>
<g mask="url(#mask0_2_511)">
<path fill-rule="evenodd" clip-rule="evenodd" d="M82.4568 0.00147774H62.6382C55.3437 0.00147774 51.3257 2.81805 51.3257 7.74828C51.3257 11.1776 54.5518 13.8888 58.8551 14.6695C54.4016 14.9444 49.6735 17.7856 49.6735 23.6025V27.4525C49.6735 30.1686 48.5474 30.4454 47.7698 30.437C46.949 30.4282 46.2967 30.0282 45.8445 29.1179L45.7182 28.8642L45.1564 29.1514L45.2919 29.408C46.1787 31.0946 47.6841 31.3828 49.1846 31.4143C53.7639 31.5104 56.6582 28.5706 56.6582 23.4084V20.6041C56.6582 16.8758 58.5561 15.0641 62.5486 15.0641H62.9166C63.0865 15.0641 63.224 14.9257 63.224 14.7552C63.224 14.5843 63.0865 14.4459 62.9166 14.4459C59.2892 14.3641 57.8284 12.0623 57.8284 7.52317C57.8763 2.94021 59.4023 0.61671 63.1178 0.61671H64.8302V30.1528H61.0584V30.7671H75.1394V30.1528H71.3676V15.0641H71.833C73.6981 15.0641 75.3679 15.5611 76.542 17.8068C77.4914 19.6229 77.5149 22.0582 77.5164 22.076H78.1399V7.43796H77.5164C77.5149 7.45618 77.4914 9.87278 76.542 11.6884C75.3679 13.9346 73.6981 14.4498 71.833 14.4498H71.3676V0.61671H72.7085C81.5539 0.61671 81.8657 8.265 82.1059 11.3954H82.7265V0L82.4568 0.00147774Z" fill="black"/>
<path fill-rule="evenodd" clip-rule="evenodd" d="M1.29661 43.3315C1.29661 42.7582 1.28143 42.3552 1.2506 42.1685C1.22026 41.9981 0.988774 41.8424 0.941792 41.8272C0.726946 41.7498 0.233632 41.7498 0.0329788 41.7346L-0.0291748 41.672V41.3779L0.0329788 41.3154C0.233632 41.3154 0.988774 41.3779 2.54506 41.3779C3.36236 41.3779 4.34849 41.3154 4.94996 41.3154C6.32175 41.3154 7.53937 42.0754 7.53937 43.6271C7.53937 45.5038 5.99777 46.0944 5.58178 46.2185L4.82664 46.451L4.76448 46.5436C5.2578 47.2574 8.00087 50.8719 8.44818 51.3532L9.04965 51.4768L9.11181 51.5394V51.8339L9.04965 51.8965C8.92633 51.8965 8.47902 51.8339 8.04786 51.8339C7.75422 51.8339 7.24573 51.8492 6.92273 51.8965C6.25959 50.6237 4.05534 47.4904 3.00754 46.451L3.1157 46.2028C4.67248 46.2028 6.19842 45.8461 6.19842 43.9532C6.19842 42.4473 5.31995 41.8587 3.93299 41.8587C3.3467 41.8587 2.88421 41.9203 2.65273 42.0139C2.59155 42.4473 2.54506 43.0374 2.54506 43.4719V49.8789C2.54506 50.4532 2.56023 50.8567 2.59155 51.0433C2.62239 51.2133 2.85387 51.3685 2.89939 51.3837C3.1157 51.4616 3.60901 51.4616 3.80869 51.4768L3.87084 51.5394V51.8339L3.80869 51.8965C3.60901 51.8965 2.85387 51.8339 1.92842 51.8339C0.988774 51.8339 0.233632 51.8965 0.0329788 51.8965L-0.0291748 51.8339V51.5394L0.0329788 51.4768C0.233632 51.4616 0.726946 51.4616 0.941792 51.3837C0.988774 51.3685 1.22026 51.2133 1.2506 51.0433C1.28143 50.8567 1.29661 50.4532 1.29661 49.8789V43.3315Z" fill="#1A1919"/>
</g>
<path fill-rule="evenodd" clip-rule="evenodd" d="M17.882 51.4772C21.1654 51.4772 21.7052 48.3134 21.7052 46.6529C21.7052 44.1087 20.7494 41.735 17.743 41.735C15.4003 41.735 13.8445 43.3014 13.8445 46.1406C13.8445 50.3758 16.1554 51.4772 17.882 51.4772ZM17.6206 52.0198C14.1679 52.0198 12.3958 49.8022 12.3958 46.4359C12.3958 43.7666 14.1992 41.1914 17.9901 41.1914C19.1 41.1914 23.1537 41.5022 23.1537 46.2955C23.1537 48.8091 21.7207 52.0198 17.6206 52.0198Z" fill="#1A1919"/>
<path fill-rule="evenodd" clip-rule="evenodd" d="M35.1489 43.6888C35.0868 42.7277 35.0868 42.6805 34.6087 42.3554C33.8232 41.8115 32.7744 41.7347 32.3281 41.7347C29.2913 41.7347 28.4589 44.1853 28.4589 46.2187C28.4589 48.5614 29.6613 51.477 32.744 51.477C33.4532 51.477 35.056 51.0435 35.5341 50.4691L35.7186 50.6391L35.3638 51.4311C34.5313 51.8035 33.3759 52.0198 32.4666 52.0198C27.6426 52.0198 27.0107 48.0023 27.0107 46.6526C27.0107 43.1459 29.0143 41.1914 32.5126 41.1914C33.7914 41.1914 35.0716 41.4549 35.8111 41.7657C35.7034 42.2928 35.6105 43.1001 35.5644 43.6888H35.1489Z" fill="#1A1919"/>
<path fill-rule="evenodd" clip-rule="evenodd" d="M47.7432 43.6888C47.682 42.7277 47.682 42.6805 47.2044 42.3554C46.4184 41.8115 45.3701 41.7347 44.9238 41.7347C41.8866 41.7347 41.0541 44.1853 41.0541 46.2187C41.0541 48.5614 42.2565 51.477 45.3393 51.477C46.0484 51.477 47.6517 51.0435 48.1293 50.4691L48.3138 50.6391L47.9595 51.4311C47.1275 51.8035 45.9711 52.0198 45.0623 52.0198C40.2378 52.0198 39.605 48.0023 39.605 46.6526C39.605 43.1459 41.6096 41.1914 45.1083 41.1914C46.388 41.1914 47.6668 41.4549 48.4068 41.7657C48.2987 42.2928 48.2062 43.1001 48.1602 43.6888H47.7432Z" fill="#1A1919"/>
<path fill-rule="evenodd" clip-rule="evenodd" d="M57.3785 51.4772C60.6619 51.4772 61.2017 48.3134 61.2017 46.6529C61.2017 44.1087 60.2459 41.735 57.24 41.735C54.8967 41.735 53.3409 43.3014 53.3409 46.1406C53.3409 50.3758 55.6519 51.4772 57.3785 51.4772ZM57.1167 52.0198C53.664 52.0198 51.8918 49.8022 51.8918 46.4359C51.8918 43.7666 53.6953 41.1914 57.4862 41.1914C58.5961 41.1914 62.6498 41.5022 62.6498 46.2955C62.6498 48.8091 61.2168 52.0198 57.1167 52.0198Z" fill="#1A1919"/>
<path fill-rule="evenodd" clip-rule="evenodd" d="M73.6901 43.3315C73.6901 42.7582 73.6749 42.3552 73.6436 42.1685C73.6127 41.9981 73.3813 41.8424 73.3357 41.8272C73.1194 41.7498 72.7191 41.7498 72.5185 41.7346L72.4573 41.672V41.3779L72.5185 41.3154C72.9036 41.3307 73.7512 41.3779 75.54 41.3779C76.7424 41.3779 77.9439 41.3307 78.7764 41.3154L79.0382 41.5021L78.9149 43.4404H78.6682L78.6071 43.3788C78.6071 43.068 78.4372 42.3858 78.2527 42.1685C77.7898 42.0139 77.0194 41.9676 76.511 41.9676C76.2022 41.9676 75.5092 41.9676 75.0315 42.107C74.9845 42.7123 74.9385 43.9684 74.9385 44.6979C74.9385 45.3644 74.9537 46.3885 74.9845 46.6525C75.3389 46.7919 75.7245 46.7919 76.3407 46.7919C76.927 46.7919 78.0672 46.7146 78.5297 46.5752L78.5909 46.6367V47.4751L78.5297 47.5367C78.3291 47.4441 77.8979 47.3968 76.6803 47.3968C75.7867 47.3968 75.2933 47.4121 74.9845 47.4441C74.9537 48.2657 74.9385 49.0883 74.9385 49.8789C74.9385 50.4532 74.9537 50.8567 74.9845 51.0433C75.0158 51.2133 75.2464 51.3685 75.2933 51.3837C75.5092 51.4616 76.2795 51.4616 76.4796 51.4768L76.5413 51.5394V51.8339L76.4796 51.8965C76.2795 51.8965 75.2464 51.8339 74.3219 51.8339C73.3813 51.8339 72.7191 51.8965 72.5185 51.8965L72.4573 51.8339V51.5394L72.5185 51.4768C72.7191 51.4616 73.1194 51.4616 73.3357 51.3837C73.3813 51.3685 73.6127 51.2133 73.6436 51.0433C73.6749 50.8567 73.6901 50.4532 73.6901 49.8789V43.3315Z" fill="#1A1919"/>
<path fill-rule="evenodd" clip-rule="evenodd" d="M87.8724 51.4772C91.1548 51.4772 91.6936 48.3134 91.6936 46.6529C91.6936 44.1087 90.7388 41.735 87.7329 41.735C85.3902 41.735 83.8339 43.3014 83.8339 46.1406C83.8339 50.3758 86.1458 51.4772 87.8724 51.4772ZM87.6097 52.0198C84.157 52.0198 82.3849 49.8022 82.3849 46.4359C82.3849 43.7666 84.1883 41.1914 87.9797 41.1914C89.0892 41.1914 93.1428 41.5022 93.1428 46.2955C93.1428 48.8091 91.7104 52.0198 87.6097 52.0198Z" fill="#1A1919"/>
<path fill-rule="evenodd" clip-rule="evenodd" d="M98.1856 43.3315C98.1856 42.7582 98.1705 42.3552 98.1396 42.1685C98.1093 41.9981 97.8778 41.8424 97.8308 41.8272C97.616 41.7498 97.1227 41.7498 96.922 41.7346L96.8599 41.672V41.3779L96.922 41.3154C97.1227 41.3154 97.8778 41.3779 99.4341 41.3779C100.251 41.3779 101.238 41.3154 101.839 41.3154C103.211 41.3154 104.428 42.0754 104.428 43.6271C104.428 45.5038 102.887 46.0944 102.471 46.2185L101.716 46.451L101.654 46.5436C102.147 47.2574 104.89 50.8719 105.337 51.3532L105.939 51.4768L106.001 51.5394V51.8339L105.939 51.8965C105.815 51.8965 105.368 51.8339 104.937 51.8339C104.643 51.8339 104.135 51.8492 103.812 51.8965C103.149 50.6237 100.944 47.4904 99.8966 46.451L100.005 46.2028C101.562 46.2028 103.087 45.8461 103.087 43.9532C103.087 42.4473 102.209 41.8587 100.822 41.8587C100.236 41.8587 99.7733 41.9203 99.5423 42.0139C99.4811 42.4473 99.4341 43.0374 99.4341 43.4719V49.8789C99.4341 50.4532 99.4493 50.8567 99.4811 51.0433C99.5114 51.2133 99.7429 51.3685 99.7884 51.3837C100.005 51.4616 100.498 51.4616 100.698 51.4768L100.76 51.5394V51.8339L100.698 51.8965C100.498 51.8965 99.7429 51.8339 98.8175 51.8339C97.8778 51.8339 97.1227 51.8965 96.922 51.8965L96.8599 51.8339V51.5394L96.922 51.4768C97.1227 51.4616 97.616 51.4616 97.8308 51.3837C97.8778 51.3685 98.1093 51.2133 98.1396 51.0433C98.1705 50.8567 98.1856 50.4532 98.1856 49.8789V43.3315Z" fill="#1A1919"/>
<path fill-rule="evenodd" clip-rule="evenodd" d="M116.979 43.3484L116.917 43.2858C116.887 42.9602 116.856 42.4017 116.61 42.1381C116.208 42.0598 115.823 41.983 114.836 41.983C114.529 41.983 114.22 41.9982 113.819 42.0293C113.758 42.4475 113.727 42.8977 113.727 43.3316V49.879C113.727 50.4534 113.742 50.8568 113.774 51.0435C113.804 51.2134 114.036 51.3686 114.082 51.3839C114.297 51.4617 114.791 51.4617 114.991 51.477L115.053 51.5395V51.8341L114.991 51.8966C114.359 51.8804 113.742 51.8341 113.11 51.8341C112.478 51.8341 111.847 51.8804 111.215 51.8966L111.153 51.8341V51.5395L111.215 51.477C111.414 51.4617 111.908 51.4617 112.124 51.3839C112.17 51.3686 112.401 51.2134 112.432 51.0435C112.463 50.8568 112.478 50.4534 112.478 49.879V43.3316C112.478 42.8977 112.448 42.4475 112.386 42.0293C111.985 41.9982 111.677 41.983 111.369 41.983C110.382 41.983 109.997 42.0598 109.596 42.1381C109.35 42.4017 109.319 42.9602 109.288 43.2858L109.227 43.3484H108.764C108.841 42.8671 108.857 42.51 108.857 42.1992C108.857 41.8741 108.795 41.6258 108.764 41.3781L108.948 41.1914C109.581 41.3461 111.045 41.3781 113.11 41.3781C115.161 41.3781 116.625 41.3461 117.257 41.1914L117.441 41.3781C117.41 41.6258 117.349 41.8741 117.349 42.1992C117.349 42.51 117.364 42.8671 117.441 43.3484H116.979Z" fill="#1A1919"/>
<path fill-rule="evenodd" clip-rule="evenodd" d="M122.005 43.3315C122.005 42.7582 121.99 42.3552 121.959 42.1685C121.929 41.9981 121.698 41.8424 121.651 41.8272C121.436 41.7498 121.034 41.7498 120.803 41.7346L120.742 41.672V41.3779L120.803 41.3154C121.759 41.3307 122.761 41.3779 123.779 41.3779C124.98 41.3779 126.182 41.3307 127.385 41.3154L127.647 41.5021L127.523 43.2857H127.277L127.215 43.2241C127.215 42.9911 127.046 42.3858 126.861 42.1685C126.429 42.0444 125.566 41.9676 124.888 41.9676C124.348 41.9676 123.716 41.9828 123.346 42.0597C123.3 42.5099 123.254 43.6118 123.254 44.1236C123.254 44.7437 123.285 45.3491 123.3 45.9545C123.455 45.9855 124.102 46.0166 124.718 46.0166C125.473 46.0166 126.615 45.9392 127.076 45.7989L127.138 45.8614V46.6993L127.076 46.7609C126.876 46.6678 126.444 46.6215 125.057 46.6215C124.333 46.6215 123.701 46.6525 123.47 46.684L123.3 46.8544C123.285 47.2268 123.254 47.6145 123.254 47.9869C123.254 48.7159 123.3 50.3291 123.346 51.1517C123.701 51.198 124.519 51.2443 125.227 51.2443C125.875 51.2443 126.738 51.198 127.262 51.0113C127.493 50.5468 127.554 50.4074 127.708 49.8331H128.079C128.048 50.205 127.955 50.9808 127.955 51.7098L127.77 51.8965C126.583 51.8492 125.381 51.8339 124.195 51.8339C123.039 51.8339 122.083 51.8492 121.358 51.8965L121.296 51.8339V51.5394L121.358 51.4768C122.005 51.3685 122.005 51.2916 122.005 49.8789V43.3315Z" fill="#1A1919"/>
<path fill-rule="evenodd" clip-rule="evenodd" d="M31.7288 62.7926C32.5612 62.8246 33.4089 62.8551 34.2413 62.8551C35.3043 62.8551 36.4143 62.8246 37.4626 62.7926V60.3257C37.4626 59.7524 37.4474 59.3494 37.4161 59.1627C37.3852 58.9923 37.1542 58.8367 37.1082 58.8214C36.8919 58.744 36.3991 58.744 36.1989 58.7288L36.1368 58.6662V58.3721L36.1989 58.3096C36.8308 58.3249 37.4474 58.3721 38.0792 58.3721C38.711 58.3721 39.3428 58.3249 39.9746 58.3096L40.0368 58.3721V58.6662L39.9746 58.7288C39.775 58.744 39.2817 58.744 39.0658 58.8214C39.0198 58.8367 38.7883 58.9923 38.757 59.1627C38.7262 59.3494 38.711 59.7524 38.711 60.3257V66.8726C38.711 67.447 38.7262 67.8504 38.757 68.0371C38.7883 68.207 39.0198 68.3622 39.0658 68.3774C39.2817 68.4553 39.775 68.4553 39.9746 68.4705L40.0368 68.5331V68.8277L39.9746 68.8902C39.3428 68.874 38.711 68.8277 38.0792 68.8277C37.4474 68.8277 36.8308 68.874 36.1989 68.8902L36.1368 68.8277V68.5331L36.1989 68.4705C36.3991 68.4553 36.8919 68.4553 37.1082 68.3774C37.1542 68.3622 37.3852 68.207 37.4161 68.0371C37.4474 67.8504 37.4626 67.447 37.4626 66.8726V63.4447C36.5689 63.4132 35.6743 63.3979 34.7807 63.3979C33.7637 63.3979 32.7467 63.4132 31.7288 63.4447V66.8726C31.7288 67.447 31.7439 67.8504 31.7753 68.0371C31.8061 68.207 32.0371 68.3622 32.0831 68.3774C32.2994 68.4553 32.7922 68.4553 32.9934 68.4705L33.0546 68.5331V68.8277L32.9934 68.8902C32.3616 68.874 31.7439 68.8277 31.1121 68.8277C30.4803 68.8277 29.8485 68.874 29.2167 68.8902L29.1555 68.8277V68.5331L29.2167 68.4705C29.4173 68.4553 29.9107 68.4553 30.1255 68.3774C30.1725 68.3622 30.404 68.207 30.4343 68.0371C30.4651 67.8504 30.4803 67.447 30.4803 66.8726V60.3257C30.4803 59.7524 30.4651 59.3494 30.4343 59.1627C30.404 58.9923 30.1725 58.8367 30.1255 58.8214C29.9107 58.744 29.4173 58.744 29.2167 58.7288L29.1555 58.6662V58.3721L29.2167 58.3096C29.8485 58.3249 30.4803 58.3721 31.1121 58.3721C31.7439 58.3721 32.3616 58.3249 32.9934 58.3096L33.0546 58.3721V58.6662L32.9934 58.7288C32.7922 58.744 32.2994 58.744 32.0831 58.8214C32.0371 58.8367 31.8061 58.9923 31.7753 59.1627C31.7439 59.3494 31.7288 59.7524 31.7288 60.3257V62.7926Z" fill="#1A1919"/>
<path fill-rule="evenodd" clip-rule="evenodd" d="M49.0106 68.4707C52.293 68.4707 52.8323 65.3069 52.8323 63.6464C52.8323 61.1022 51.8775 58.7289 48.8711 58.7289C46.5284 58.7289 44.9721 60.2954 44.9721 63.1341C44.9721 67.3693 47.2845 68.4707 49.0106 68.4707ZM48.7479 69.0134C45.2952 69.0134 43.5231 66.7958 43.5231 63.4295C43.5231 60.7607 45.327 58.1855 49.1179 58.1855C50.2273 58.1855 54.2815 58.4958 54.2815 63.2891C54.2815 65.8028 52.8486 69.0134 48.7479 69.0134Z" fill="#1A1919"/>
<path fill-rule="evenodd" clip-rule="evenodd" d="M65.7985 60.3425L65.7364 60.28C65.7056 59.9544 65.6752 59.3958 65.4286 59.1318C65.0272 59.0539 64.6421 58.9771 63.6555 58.9771C63.3476 58.9771 63.0388 58.9924 62.6385 59.0234C62.5763 59.4416 62.5455 59.8918 62.5455 60.3258V66.8727C62.5455 67.4471 62.5612 67.8504 62.5925 68.0371C62.6233 68.207 62.8543 68.3622 62.9003 68.3775C63.1161 68.4553 63.6095 68.4553 63.8091 68.4706L63.8713 68.5331V68.8277L63.8091 68.8904C63.1773 68.8741 62.5612 68.8277 61.9294 68.8277C61.2975 68.8277 60.6657 68.8741 60.0339 68.8904L59.9718 68.8277V68.5331L60.0339 68.4706C60.2346 68.4553 60.7274 68.4553 60.9427 68.3775C60.9897 68.3622 61.2207 68.207 61.2515 68.0371C61.2819 67.8504 61.2975 67.4471 61.2975 66.8727V60.3258C61.2975 59.8918 61.2667 59.4416 61.2046 59.0234C60.8042 58.9924 60.4964 58.9771 60.1876 58.9771C59.201 58.9771 58.8158 59.0539 58.4155 59.1318C58.1688 59.3958 58.1375 59.9544 58.1067 60.28L58.0455 60.3425H57.583C57.6603 59.8613 57.6755 59.5041 57.6755 59.1933C57.6755 58.8682 57.6134 58.62 57.583 58.3722L57.7685 58.1855C58.4003 58.3402 59.8636 58.3722 61.9294 58.3722C63.9794 58.3722 65.4437 58.3402 66.0755 58.1855L66.26 58.3722C66.2297 58.62 66.1685 58.8682 66.1685 59.1933C66.1685 59.5041 66.1837 59.8613 66.26 60.3425H65.7985Z" fill="#1A1919"/>
<path fill-rule="evenodd" clip-rule="evenodd" d="M70.8247 60.3257C70.8247 59.7524 70.8095 59.3494 70.7787 59.1627C70.7483 58.9923 70.5168 58.8367 70.4698 58.8214C70.255 58.744 69.8532 58.744 69.6232 58.7288L69.561 58.6662V58.3721L69.6232 58.3096C70.578 58.3249 71.5798 58.3721 72.5978 58.3721C73.7992 58.3721 75.0017 58.3249 76.2041 58.3096L76.466 58.4958L76.3426 60.2799H76.096L76.0348 60.2183C76.0348 59.9853 75.865 59.38 75.6805 59.1627C75.2483 59.0386 74.385 58.9618 73.7072 58.9618C73.1674 58.9618 72.5356 58.977 72.1656 59.0539C72.1196 59.5041 72.0731 60.606 72.0731 61.1178C72.0731 61.7379 72.1044 62.3433 72.1196 62.9487C72.2738 62.9792 72.9208 63.0103 73.5374 63.0103C74.2925 63.0103 75.4338 62.9329 75.8953 62.7926L75.9575 62.8551V63.693L75.8953 63.7546C75.6956 63.6615 75.2635 63.6152 73.8766 63.6152C73.1522 63.6152 72.5204 63.6462 72.2889 63.6777L72.1196 63.8482C72.1044 64.2206 72.0731 64.6082 72.0731 64.9806C72.0731 65.7096 72.1196 67.3228 72.1656 68.1454C72.5204 68.1917 73.3377 68.238 74.0459 68.238C74.6938 68.238 75.5571 68.1917 76.0808 68.005C76.3123 67.5405 76.3735 67.4011 76.5281 66.8268H76.8971C76.8668 67.1987 76.7748 67.9745 76.7748 68.7035L76.5893 68.8902C75.402 68.8429 74.2005 68.8277 73.0133 68.8277C71.8578 68.8277 70.902 68.8429 70.1777 68.8902L70.1165 68.8277V68.5331L70.1777 68.4705C70.8247 68.3622 70.8247 68.2853 70.8247 66.8726V60.3257Z" fill="#1A1919"/>
<path fill-rule="evenodd" clip-rule="evenodd" d="M81.7697 60.3257C81.7697 59.7524 81.7546 59.3494 81.7228 59.1627C81.6924 58.9923 81.4609 58.8367 81.4149 58.8214C81.1991 58.744 80.7058 58.744 80.5061 58.7288L80.444 58.6662V58.3721L80.5061 58.3096C81.1379 58.3249 81.7697 58.3721 82.4016 58.3721C83.0334 58.3721 83.65 58.3249 84.3743 58.3096L84.4355 58.3721V58.6662L84.3743 58.7288C84.0812 58.744 83.5879 58.744 83.3725 58.8214C83.326 58.8367 83.0946 58.9923 83.0642 59.1627C83.0334 59.3494 83.0182 59.7524 83.0182 60.3257V64.9806C83.0182 65.7096 83.0642 67.3228 83.1107 68.0986C83.4655 68.1454 84.2818 68.1917 84.991 68.1917C85.638 68.1917 86.5013 68.1454 87.0249 67.9587C87.2564 67.5405 87.3185 67.4011 87.5334 66.6091H87.8422L87.9044 66.6716C87.8119 67.1987 87.7189 67.9745 87.7189 68.7035L87.5334 68.8902C86.3476 68.8429 85.1451 68.8277 83.9588 68.8277C82.8019 68.8277 81.8461 68.8429 81.1218 68.8902L81.0606 68.8277V68.5331L81.1218 68.4705C81.7697 68.3622 81.7697 68.2853 81.7697 66.8726V60.3257Z" fill="#1A1919"/>
<path fill-rule="evenodd" clip-rule="evenodd" d="M92.3919 66.3919L92.4531 66.4544L92.5461 67.4317C92.5612 67.5406 93.1622 68.4706 94.7655 68.4706C96.2298 68.4706 97.1856 67.6022 97.1856 66.0195C97.1856 63.0409 91.5594 64.8408 91.5594 61.1484C91.5594 59.1165 93.4862 58.1855 95.4433 58.1855C96.1828 58.1855 97.0613 58.2786 97.7861 58.6815C97.6789 59.2559 97.5394 59.9854 97.5394 60.5903H97.1856L97.1234 60.5277C97.0931 60.0622 97.0774 59.9381 96.9849 59.4263C96.5068 59.085 96.0291 58.7288 94.8888 58.7288C93.4701 58.7288 92.8079 59.613 92.8079 60.6519C92.8079 63.9876 98.434 61.9557 98.434 65.4461C98.434 67.8972 96.4916 69.0134 94.2414 69.0134C93.9634 69.0134 92.6537 69.0134 91.8364 68.409C91.9906 67.8973 92.0068 67.3539 92.0831 66.3919H92.3919Z" fill="#1A1919"/>
</svg>
